G04 ================== begin FILE IDENTIFICATION RECORD ==================*
G04 Layout Name:  e:/ORCAD_sch/RZSK/HF_filter/v4/pcb/v3.brd*
G04 Film Name:    MASK_BOT*
G04 File Format:  Gerber RS274X*
G04 File Origin:  Cadence Allegro 16.5-S013*
G04 Origin Date:  Fri Mar 02 09:51:18 2012*
G04 *
G04 Layer:  VIA CLASS/PASTEMASK_BOTTOM*
G04 Layer:  PIN/PASTEMASK_BOTTOM*
G04 Layer:  PACKAGE GEOMETRY/PASTEMASK_BOTTOM*
G04 *
G04 Offset:    (0.000 0.000)*
G04 Mirror:    No*
G04 Mode:      Positive*
G04 Rotation:  0*
G04 FullContactRelief:  No*
G04 UndefLineWidth:     0.000*
G04 ================== end FILE IDENTIFICATION RECORD ====================*
%FSLAX35Y35*MOMM*%
%IR0*IPPOS*OFA0.00000B0.00000*MIA0B0*SFA1.00000B1.00000*%
%ADD14C,4.*%
%ADD12C,3.2*%
%ADD10C,2.5*%
%ADD16R,4.X4.*%
%ADD15C,6.5*%
%ADD11R,3.2X3.2*%
%ADD13R,2.5X2.5*%
%LPD*%
G75*
G54D10*
X6800000Y5600000D03*
Y8300000D03*
X7200000Y9900000D03*
X7700000D03*
X8300000D03*
X8800000D03*
X9400000D03*
X9900000D03*
X10500000D03*
X11000000D03*
X11600000D03*
X12100000D03*
X13100000Y5800000D03*
X13600000D03*
Y10400000D03*
Y10900000D03*
X13800000Y11500000D03*
X14100000Y6300000D03*
Y6800000D03*
Y7300000D03*
Y7800000D03*
Y8300000D03*
Y8800000D03*
Y9300000D03*
Y9800000D03*
Y10400000D03*
X14400000Y5400000D03*
X14300000Y11500000D03*
X14600000Y6800000D03*
Y7300000D03*
Y7800000D03*
Y8300000D03*
Y8800000D03*
Y9300000D03*
X14900000Y5400000D03*
X15000000Y10050000D03*
Y10900000D03*
X16100000Y13400000D03*
X16600000D03*
X17200000D03*
X17700000D03*
X18300000D03*
X18800000D03*
X19400000D03*
X19900000Y9400000D03*
Y13400000D03*
X20650000Y4400000D03*
X20500000Y8900000D03*
Y9400000D03*
Y13400000D03*
X21000000D03*
X21100000Y5300000D03*
Y5800000D03*
X21800000Y5300000D03*
Y5800000D03*
G54D11*
X6800000Y6500000D03*
X15350000Y12600000D03*
X21500000Y9100000D03*
G54D12*
X6800000Y7325000D03*
X12875000Y12600000D03*
X13700000D03*
X14525000D03*
X21500000Y6625000D03*
Y7450000D03*
Y8275000D03*
G54D13*
X7200000Y13400000D03*
X7700000D03*
X8300000D03*
X8800000D03*
X9400000D03*
X9900000D03*
X10500000D03*
X11000000D03*
X11600000D03*
X12100000D03*
X16100000Y9900000D03*
X16600000D03*
X17200000D03*
X17700000D03*
X18300000D03*
X18800000D03*
X19400000D03*
X19900000D03*
X20500000D03*
X21000000D03*
G54D14*
X7450000Y4600000D03*
X13500000Y6800000D03*
Y7300000D03*
Y7800000D03*
Y8300000D03*
Y8800000D03*
Y9300000D03*
Y9800000D03*
X22000000Y9900000D03*
G54D15*
X12500000Y4550000D03*
G54D16*
X13000000Y6800000D03*
Y7300000D03*
Y7800000D03*
Y8300000D03*
Y8800000D03*
Y9300000D03*
Y9800000D03*
X21500000Y9900000D03*
M02*
