G04 ================== begin FILE IDENTIFICATION RECORD ==================*
G04 Layout Name:  E:/ORCAD_sch/RZSK/HF_filter/v4/pcb/v3.brd*
G04 Film Name:    SILK_BOT*
G04 File Format:  Gerber RS274X*
G04 File Origin:  Cadence Allegro 16.5-S013*
G04 Origin Date:  Sun Mar 11 10:26:31 2012*
G04 *
G04 Layer:  MANUFACTURING/AUTOSILK_BOTTOM*
G04 *
G04 Offset:    (0.000 0.000)*
G04 Mirror:    No*
G04 Mode:      Positive*
G04 Rotation:  0*
G04 FullContactRelief:  No*
G04 UndefLineWidth:     0.250*
G04 ================== end FILE IDENTIFICATION RECORD ====================*
%FSLAX34Y34*MOMM*%
%IR0*IPPOS*OFA0.00000B0.00000*MIA0B0*SFA1.00000B1.00000*%
%ADD10C,.25*%
G75*
%LPD*%
G75*
G54D10*
G01X570000Y390000D02*
Y470000D01*
X650000D01*
Y390000D01*
X570000D01*
G01Y1290000D02*
Y1370000D01*
X650000D01*
Y1290000D01*
X570000D01*
G01X609000Y786250D02*
X751000D01*
Y596250D01*
X609000D01*
Y786250D01*
G01X770000Y1285000D02*
Y1045000D01*
X670000D01*
Y1285000D01*
X770000D01*
G01X880000D02*
Y1045000D01*
X780000D01*
Y1285000D01*
X880000D01*
G01X990000D02*
Y1045000D01*
X890000D01*
Y1285000D01*
X990000D01*
G01X1100000D02*
Y1045000D01*
X1000000D01*
Y1285000D01*
X1100000D01*
G01X1210000D02*
Y1045000D01*
X1110000D01*
Y1285000D01*
X1210000D01*
G01X1236250Y1189000D02*
Y1331000D01*
X1586250D01*
Y1189000D01*
X1236250D01*
G01X1375000Y705000D02*
Y655000D01*
X1275000D01*
Y705000D01*
X1375000D01*
G01Y755000D02*
Y705000D01*
X1275000D01*
Y755000D01*
X1375000D01*
G01Y805000D02*
Y755000D01*
X1275000D01*
Y805000D01*
X1375000D01*
G01Y855000D02*
Y805000D01*
X1275000D01*
Y855000D01*
X1375000D01*
G01Y905000D02*
Y855000D01*
X1275000D01*
Y905000D01*
X1375000D01*
G01Y955000D02*
Y905000D01*
X1275000D01*
Y955000D01*
X1375000D01*
G01Y1005000D02*
Y955000D01*
X1275000D01*
Y1005000D01*
X1375000D01*
G01X1610000Y1045000D02*
Y1285000D01*
X1710000D01*
Y1045000D01*
X1610000D01*
G01X1720000D02*
Y1285000D01*
X1820000D01*
Y1045000D01*
X1720000D01*
G01X1830000D02*
Y1285000D01*
X1930000D01*
Y1045000D01*
X1830000D01*
G01X1940000D02*
Y1285000D01*
X2040000D01*
Y1045000D01*
X1940000D01*
G01X2090000Y415000D02*
X2040000D01*
Y465000D01*
X2090000D01*
Y415000D01*
G01X2050000Y1045000D02*
Y1285000D01*
X2150000D01*
Y1045000D01*
X2050000D01*
G01X2135000Y505000D02*
X2085000D01*
Y555000D01*
X2135000D01*
Y505000D01*
G01X2221000Y611250D02*
X2079000D01*
Y961250D01*
X2221000D01*
Y611250D01*
G01X2225000Y1015000D02*
Y965000D01*
X2125000D01*
Y1015000D01*
X2225000D01*
G01X2170000Y390000D02*
Y470000D01*
X2250000D01*
Y390000D01*
X2170000D01*
G01Y1290000D02*
Y1370000D01*
X2250000D01*
Y1290000D01*
X2170000D01*
G01X757500D02*
Y1310000D01*
X751250D01*
X749250Y1309000D01*
X748000Y1307670D01*
X747500Y1305000D01*
X748000Y1302330D01*
X749500Y1300670D01*
X751250Y1299670D01*
X757500D01*
G01X751250D02*
X747500Y1290000D01*
G01X733500D02*
Y1310000D01*
X736500Y1306000D01*
G01Y1290000D02*
X730500D01*
G01X782750Y675000D02*
X772250Y695000D01*
G01X782750D02*
X772250Y675000D01*
G01X758500D02*
Y695000D01*
X761500Y691000D01*
G01Y675000D02*
X755500D01*
G01X857500Y1290000D02*
Y1310000D01*
X851250D01*
X849250Y1309000D01*
X848000Y1307670D01*
X847500Y1305000D01*
X848000Y1302330D01*
X849500Y1300670D01*
X851250Y1299670D01*
X857500D01*
G01X851250D02*
X847500Y1290000D01*
G01X838250Y1306670D02*
X836750Y1308670D01*
X835000Y1309670D01*
X833000Y1310000D01*
X830500Y1309330D01*
X828750Y1307670D01*
X828250Y1305670D01*
X828500Y1303670D01*
X829500Y1302000D01*
X834500Y1298670D01*
X836750Y1296330D01*
X838250Y1293000D01*
X838750Y1290000D01*
X828250D01*
G01X977500D02*
Y1310000D01*
X971250D01*
X969250Y1309000D01*
X968000Y1307670D01*
X967500Y1305000D01*
X968000Y1302330D01*
X969500Y1300670D01*
X971250Y1299670D01*
X977500D01*
G01X971250D02*
X967500Y1290000D01*
G01X959000Y1294000D02*
X957500Y1291670D01*
X955500Y1290330D01*
X953250Y1290000D01*
X951250Y1290330D01*
X949250Y1292000D01*
X948000Y1294000D01*
X947750Y1296000D01*
X948250Y1298330D01*
X950000Y1300000D01*
X951750Y1300670D01*
X954000D01*
G01X951750D02*
X950250Y1301670D01*
X949000Y1303330D01*
X948500Y1305330D01*
X949000Y1307330D01*
X950250Y1309000D01*
X952500Y1310000D01*
X954750Y1309670D01*
X957000Y1308330D01*
G01X1197750Y736670D02*
X1195750Y735000D01*
X1193500Y734000D01*
X1191500D01*
X1189500Y735000D01*
X1188000Y736670D01*
X1187250Y739000D01*
X1187750Y741330D01*
X1189000Y743330D01*
X1191250Y744670D01*
X1194250Y745330D01*
X1196000Y746670D01*
X1196750Y749000D01*
X1196250Y751330D01*
X1195000Y753000D01*
X1193250Y754000D01*
X1191500D01*
X1189750Y753330D01*
X1188250Y751670D01*
G01X1174000Y734000D02*
X1173500Y738330D01*
X1172750Y742000D01*
X1171750Y745330D01*
X1170500Y749000D01*
X1168500Y754000D01*
X1178500D01*
G01X1138750Y740670D02*
X1132250D01*
G01X1103000Y738000D02*
X1101500Y735670D01*
X1099500Y734330D01*
X1097250Y734000D01*
X1095250Y734330D01*
X1093250Y736000D01*
X1092000Y738000D01*
X1091750Y740000D01*
X1092250Y742330D01*
X1094000Y744000D01*
X1095750Y744670D01*
X1098000D01*
G01X1095750D02*
X1094250Y745670D01*
X1093000Y747330D01*
X1092500Y749330D01*
X1093000Y751330D01*
X1094250Y753000D01*
X1096500Y754000D01*
X1098750Y753670D01*
X1101000Y752330D01*
G01X1078500Y754000D02*
X1080500Y753330D01*
X1082000Y751670D01*
X1083000Y749670D01*
X1083750Y747000D01*
X1084000Y744000D01*
X1083750Y741000D01*
X1083000Y738330D01*
X1082000Y736330D01*
X1080500Y734670D01*
X1078500Y734000D01*
X1076500Y734670D01*
X1075000Y736330D01*
X1074000Y738330D01*
X1073250Y741000D01*
X1073000Y744000D01*
X1073250Y747000D01*
X1074000Y749670D01*
X1075000Y751670D01*
X1076500Y753330D01*
X1078500Y754000D01*
G01X1021500Y734000D02*
X1023500Y734330D01*
X1025250Y735670D01*
X1026750Y737670D01*
X1027750Y740000D01*
X1028250Y742670D01*
Y745330D01*
X1027750Y748000D01*
X1026750Y750330D01*
X1025250Y752330D01*
X1023500Y753670D01*
X1021500Y754000D01*
X1019500Y753670D01*
X1017750Y752330D01*
X1016250Y750330D01*
X1015250Y748000D01*
X1014750Y745330D01*
Y742670D01*
X1015250Y740000D01*
X1016250Y737670D01*
X1017750Y735670D01*
X1019500Y734330D01*
X1021500Y734000D01*
G01X1010000D02*
Y747330D01*
G01Y743670D02*
X1009250Y745330D01*
X1008000Y746670D01*
X1006250Y747330D01*
X1004500Y746670D01*
X1003250Y745330D01*
X1002500Y743670D01*
Y734000D01*
G01Y743670D02*
X1001750Y745330D01*
X1000500Y746670D01*
X998750Y747330D01*
X997000Y746670D01*
X995750Y745330D01*
X995000Y743330D01*
Y734000D01*
G01X1197750Y767670D02*
X1195750Y766000D01*
X1193500Y765000D01*
X1191500D01*
X1189500Y766000D01*
X1188000Y767670D01*
X1187250Y770000D01*
X1187750Y772330D01*
X1189000Y774330D01*
X1191250Y775670D01*
X1194250Y776330D01*
X1196000Y777670D01*
X1196750Y780000D01*
X1196250Y782330D01*
X1195000Y784000D01*
X1193250Y785000D01*
X1191500D01*
X1189750Y784330D01*
X1188250Y782670D01*
G01X1178250Y773330D02*
X1176500Y775670D01*
X1175000Y777000D01*
X1173000Y777670D01*
X1171250Y777000D01*
X1170000Y775670D01*
X1169000Y773670D01*
X1168750Y771330D01*
X1169000Y769330D01*
X1170000Y767330D01*
X1171500Y765670D01*
X1173250Y765000D01*
X1175250Y765670D01*
X1177000Y767670D01*
X1178000Y770670D01*
X1178250Y774000D01*
X1177750Y778330D01*
X1177000Y780670D01*
X1175750Y783000D01*
X1174000Y784670D01*
X1172250Y785000D01*
X1170500Y784330D01*
X1169250Y782670D01*
G01X1138750Y771670D02*
X1132250D01*
G01X1103000Y768000D02*
X1101500Y766330D01*
X1099750Y765330D01*
X1097500Y765000D01*
X1095250Y765670D01*
X1093500Y767000D01*
X1092250Y769330D01*
X1092000Y772000D01*
X1092500Y774670D01*
X1093750Y776330D01*
X1095500Y777670D01*
X1097250Y778000D01*
X1099000Y777670D01*
X1101250Y776330D01*
X1100500Y785000D01*
X1093750D01*
G01X1078500D02*
X1080500Y784330D01*
X1082000Y782670D01*
X1083000Y780670D01*
X1083750Y778000D01*
X1084000Y775000D01*
X1083750Y772000D01*
X1083000Y769330D01*
X1082000Y767330D01*
X1080500Y765670D01*
X1078500Y765000D01*
X1076500Y765670D01*
X1075000Y767330D01*
X1074000Y769330D01*
X1073250Y772000D01*
X1073000Y775000D01*
X1073250Y778000D01*
X1074000Y780670D01*
X1075000Y782670D01*
X1076500Y784330D01*
X1078500Y785000D01*
G01X1021500Y765000D02*
X1023500Y765330D01*
X1025250Y766670D01*
X1026750Y768670D01*
X1027750Y771000D01*
X1028250Y773670D01*
Y776330D01*
X1027750Y779000D01*
X1026750Y781330D01*
X1025250Y783330D01*
X1023500Y784670D01*
X1021500Y785000D01*
X1019500Y784670D01*
X1017750Y783330D01*
X1016250Y781330D01*
X1015250Y779000D01*
X1014750Y776330D01*
Y773670D01*
X1015250Y771000D01*
X1016250Y768670D01*
X1017750Y766670D01*
X1019500Y765330D01*
X1021500Y765000D01*
G01X1010000D02*
Y778330D01*
G01Y774670D02*
X1009250Y776330D01*
X1008000Y777670D01*
X1006250Y778330D01*
X1004500Y777670D01*
X1003250Y776330D01*
X1002500Y774670D01*
Y765000D01*
G01Y774670D02*
X1001750Y776330D01*
X1000500Y777670D01*
X998750Y778330D01*
X997000Y777670D01*
X995750Y776330D01*
X995000Y774330D01*
Y765000D01*
G01X1197750Y798670D02*
X1195750Y797000D01*
X1193500Y796000D01*
X1191500D01*
X1189500Y797000D01*
X1188000Y798670D01*
X1187250Y801000D01*
X1187750Y803330D01*
X1189000Y805330D01*
X1191250Y806670D01*
X1194250Y807330D01*
X1196000Y808670D01*
X1196750Y811000D01*
X1196250Y813330D01*
X1195000Y815000D01*
X1193250Y816000D01*
X1191500D01*
X1189750Y815330D01*
X1188250Y813670D01*
G01X1179000Y799000D02*
X1177500Y797330D01*
X1175750Y796330D01*
X1173500Y796000D01*
X1171250Y796670D01*
X1169500Y798000D01*
X1168250Y800330D01*
X1168000Y803000D01*
X1168500Y805670D01*
X1169750Y807330D01*
X1171500Y808670D01*
X1173250Y809000D01*
X1175000Y808670D01*
X1177250Y807330D01*
X1176500Y816000D01*
X1169750D01*
G01X1138750Y802670D02*
X1132250D01*
G01X1098000Y796000D02*
X1097500Y800330D01*
X1096750Y804000D01*
X1095750Y807330D01*
X1094500Y811000D01*
X1092500Y816000D01*
X1102500D01*
G01X1084000Y799000D02*
X1082500Y797330D01*
X1080750Y796330D01*
X1078500Y796000D01*
X1076250Y796670D01*
X1074500Y798000D01*
X1073250Y800330D01*
X1073000Y803000D01*
X1073500Y805670D01*
X1074750Y807330D01*
X1076500Y808670D01*
X1078250Y809000D01*
X1080000Y808670D01*
X1082250Y807330D01*
X1081500Y816000D01*
X1074750D01*
G01X1021500Y796000D02*
X1023500Y796330D01*
X1025250Y797670D01*
X1026750Y799670D01*
X1027750Y802000D01*
X1028250Y804670D01*
Y807330D01*
X1027750Y810000D01*
X1026750Y812330D01*
X1025250Y814330D01*
X1023500Y815670D01*
X1021500Y816000D01*
X1019500Y815670D01*
X1017750Y814330D01*
X1016250Y812330D01*
X1015250Y810000D01*
X1014750Y807330D01*
Y804670D01*
X1015250Y802000D01*
X1016250Y799670D01*
X1017750Y797670D01*
X1019500Y796330D01*
X1021500Y796000D01*
G01X1010000D02*
Y809330D01*
G01Y805670D02*
X1009250Y807330D01*
X1008000Y808670D01*
X1006250Y809330D01*
X1004500Y808670D01*
X1003250Y807330D01*
X1002500Y805670D01*
Y796000D01*
G01Y805670D02*
X1001750Y807330D01*
X1000500Y808670D01*
X998750Y809330D01*
X997000Y808670D01*
X995750Y807330D01*
X995000Y805330D01*
Y796000D01*
G01X1197750Y829670D02*
X1195750Y828000D01*
X1193500Y827000D01*
X1191500D01*
X1189500Y828000D01*
X1188000Y829670D01*
X1187250Y832000D01*
X1187750Y834330D01*
X1189000Y836330D01*
X1191250Y837670D01*
X1194250Y838330D01*
X1196000Y839670D01*
X1196750Y842000D01*
X1196250Y844330D01*
X1195000Y846000D01*
X1193250Y847000D01*
X1191500D01*
X1189750Y846330D01*
X1188250Y844670D01*
G01X1170500Y827000D02*
Y847000D01*
X1179750Y832670D01*
X1167250D01*
G01X1138750Y833670D02*
X1132250D01*
G01X1097500Y827000D02*
Y847000D01*
X1100500Y843000D01*
G01Y827000D02*
X1094500D01*
G01X1078500Y847000D02*
X1080500Y846330D01*
X1082000Y844670D01*
X1083000Y842670D01*
X1083750Y840000D01*
X1084000Y837000D01*
X1083750Y834000D01*
X1083000Y831330D01*
X1082000Y829330D01*
X1080500Y827670D01*
X1078500Y827000D01*
X1076500Y827670D01*
X1075000Y829330D01*
X1074000Y831330D01*
X1073250Y834000D01*
X1073000Y837000D01*
X1073250Y840000D01*
X1074000Y842670D01*
X1075000Y844670D01*
X1076500Y846330D01*
X1078500Y847000D01*
G01X1059500D02*
X1061500Y846330D01*
X1063000Y844670D01*
X1064000Y842670D01*
X1064750Y840000D01*
X1065000Y837000D01*
X1064750Y834000D01*
X1064000Y831330D01*
X1063000Y829330D01*
X1061500Y827670D01*
X1059500Y827000D01*
X1057500Y827670D01*
X1056000Y829330D01*
X1055000Y831330D01*
X1054250Y834000D01*
X1054000Y837000D01*
X1054250Y840000D01*
X1055000Y842670D01*
X1056000Y844670D01*
X1057500Y846330D01*
X1059500Y847000D01*
G01X1021500Y827000D02*
X1023500Y827330D01*
X1025250Y828670D01*
X1026750Y830670D01*
X1027750Y833000D01*
X1028250Y835670D01*
Y838330D01*
X1027750Y841000D01*
X1026750Y843330D01*
X1025250Y845330D01*
X1023500Y846670D01*
X1021500Y847000D01*
X1019500Y846670D01*
X1017750Y845330D01*
X1016250Y843330D01*
X1015250Y841000D01*
X1014750Y838330D01*
Y835670D01*
X1015250Y833000D01*
X1016250Y830670D01*
X1017750Y828670D01*
X1019500Y827330D01*
X1021500Y827000D01*
G01X1010000D02*
Y840330D01*
G01Y836670D02*
X1009250Y838330D01*
X1008000Y839670D01*
X1006250Y840330D01*
X1004500Y839670D01*
X1003250Y838330D01*
X1002500Y836670D01*
Y827000D01*
G01Y836670D02*
X1001750Y838330D01*
X1000500Y839670D01*
X998750Y840330D01*
X997000Y839670D01*
X995750Y838330D01*
X995000Y836330D01*
Y827000D01*
G01X1197750Y860670D02*
X1195750Y859000D01*
X1193500Y858000D01*
X1191500D01*
X1189500Y859000D01*
X1188000Y860670D01*
X1187250Y863000D01*
X1187750Y865330D01*
X1189000Y867330D01*
X1191250Y868670D01*
X1194250Y869330D01*
X1196000Y870670D01*
X1196750Y873000D01*
X1196250Y875330D01*
X1195000Y877000D01*
X1193250Y878000D01*
X1191500D01*
X1189750Y877330D01*
X1188250Y875670D01*
G01X1179000Y862000D02*
X1177500Y859670D01*
X1175500Y858330D01*
X1173250Y858000D01*
X1171250Y858330D01*
X1169250Y860000D01*
X1168000Y862000D01*
X1167750Y864000D01*
X1168250Y866330D01*
X1170000Y868000D01*
X1171750Y868670D01*
X1174000D01*
G01X1171750D02*
X1170250Y869670D01*
X1169000Y871330D01*
X1168500Y873330D01*
X1169000Y875330D01*
X1170250Y877000D01*
X1172500Y878000D01*
X1174750Y877670D01*
X1177000Y876330D01*
G01X1138750Y864670D02*
X1132250D01*
G01X1097500Y858000D02*
Y878000D01*
X1100500Y874000D01*
G01Y858000D02*
X1094500D01*
G01X1084000Y862000D02*
X1082500Y859670D01*
X1080500Y858330D01*
X1078250Y858000D01*
X1076250Y858330D01*
X1074250Y860000D01*
X1073000Y862000D01*
X1072750Y864000D01*
X1073250Y866330D01*
X1075000Y868000D01*
X1076750Y868670D01*
X1079000D01*
G01X1076750D02*
X1075250Y869670D01*
X1074000Y871330D01*
X1073500Y873330D01*
X1074000Y875330D01*
X1075250Y877000D01*
X1077500Y878000D01*
X1079750Y877670D01*
X1082000Y876330D01*
G01X1065000Y861000D02*
X1063500Y859330D01*
X1061750Y858330D01*
X1059500Y858000D01*
X1057250Y858670D01*
X1055500Y860000D01*
X1054250Y862330D01*
X1054000Y865000D01*
X1054500Y867670D01*
X1055750Y869330D01*
X1057500Y870670D01*
X1059250Y871000D01*
X1061000Y870670D01*
X1063250Y869330D01*
X1062500Y878000D01*
X1055750D01*
G01X1021500Y858000D02*
X1023500Y858330D01*
X1025250Y859670D01*
X1026750Y861670D01*
X1027750Y864000D01*
X1028250Y866670D01*
Y869330D01*
X1027750Y872000D01*
X1026750Y874330D01*
X1025250Y876330D01*
X1023500Y877670D01*
X1021500Y878000D01*
X1019500Y877670D01*
X1017750Y876330D01*
X1016250Y874330D01*
X1015250Y872000D01*
X1014750Y869330D01*
Y866670D01*
X1015250Y864000D01*
X1016250Y861670D01*
X1017750Y859670D01*
X1019500Y858330D01*
X1021500Y858000D01*
G01X1010000D02*
Y871330D01*
G01Y867670D02*
X1009250Y869330D01*
X1008000Y870670D01*
X1006250Y871330D01*
X1004500Y870670D01*
X1003250Y869330D01*
X1002500Y867670D01*
Y858000D01*
G01Y867670D02*
X1001750Y869330D01*
X1000500Y870670D01*
X998750Y871330D01*
X997000Y870670D01*
X995750Y869330D01*
X995000Y867330D01*
Y858000D01*
G01X1197750Y891670D02*
X1195750Y890000D01*
X1193500Y889000D01*
X1191500D01*
X1189500Y890000D01*
X1188000Y891670D01*
X1187250Y894000D01*
X1187750Y896330D01*
X1189000Y898330D01*
X1191250Y899670D01*
X1194250Y900330D01*
X1196000Y901670D01*
X1196750Y904000D01*
X1196250Y906330D01*
X1195000Y908000D01*
X1193250Y909000D01*
X1191500D01*
X1189750Y908330D01*
X1188250Y906670D01*
G01X1178250Y905670D02*
X1176750Y907670D01*
X1175000Y908670D01*
X1173000Y909000D01*
X1170500Y908330D01*
X1168750Y906670D01*
X1168250Y904670D01*
X1168500Y902670D01*
X1169500Y901000D01*
X1174500Y897670D01*
X1176750Y895330D01*
X1178250Y892000D01*
X1178750Y889000D01*
X1168250D01*
G01X1138750Y895670D02*
X1132250D01*
G01X1097500Y889000D02*
Y909000D01*
X1100500Y905000D01*
G01Y889000D02*
X1094500D01*
G01X1084000Y892000D02*
X1082500Y890330D01*
X1080750Y889330D01*
X1078500Y889000D01*
X1076250Y889670D01*
X1074500Y891000D01*
X1073250Y893330D01*
X1073000Y896000D01*
X1073500Y898670D01*
X1074750Y900330D01*
X1076500Y901670D01*
X1078250Y902000D01*
X1080000Y901670D01*
X1082250Y900330D01*
X1081500Y909000D01*
X1074750D01*
G01X1059500D02*
X1061500Y908330D01*
X1063000Y906670D01*
X1064000Y904670D01*
X1064750Y902000D01*
X1065000Y899000D01*
X1064750Y896000D01*
X1064000Y893330D01*
X1063000Y891330D01*
X1061500Y889670D01*
X1059500Y889000D01*
X1057500Y889670D01*
X1056000Y891330D01*
X1055000Y893330D01*
X1054250Y896000D01*
X1054000Y899000D01*
X1054250Y902000D01*
X1055000Y904670D01*
X1056000Y906670D01*
X1057500Y908330D01*
X1059500Y909000D01*
G01X1021500Y889000D02*
X1023500Y889330D01*
X1025250Y890670D01*
X1026750Y892670D01*
X1027750Y895000D01*
X1028250Y897670D01*
Y900330D01*
X1027750Y903000D01*
X1026750Y905330D01*
X1025250Y907330D01*
X1023500Y908670D01*
X1021500Y909000D01*
X1019500Y908670D01*
X1017750Y907330D01*
X1016250Y905330D01*
X1015250Y903000D01*
X1014750Y900330D01*
Y897670D01*
X1015250Y895000D01*
X1016250Y892670D01*
X1017750Y890670D01*
X1019500Y889330D01*
X1021500Y889000D01*
G01X1010000D02*
Y902330D01*
G01Y898670D02*
X1009250Y900330D01*
X1008000Y901670D01*
X1006250Y902330D01*
X1004500Y901670D01*
X1003250Y900330D01*
X1002500Y898670D01*
Y889000D01*
G01Y898670D02*
X1001750Y900330D01*
X1000500Y901670D01*
X998750Y902330D01*
X997000Y901670D01*
X995750Y900330D01*
X995000Y898330D01*
Y889000D01*
G01X1197750Y922670D02*
X1195750Y921000D01*
X1193500Y920000D01*
X1191500D01*
X1189500Y921000D01*
X1188000Y922670D01*
X1187250Y925000D01*
X1187750Y927330D01*
X1189000Y929330D01*
X1191250Y930670D01*
X1194250Y931330D01*
X1196000Y932670D01*
X1196750Y935000D01*
X1196250Y937330D01*
X1195000Y939000D01*
X1193250Y940000D01*
X1191500D01*
X1189750Y939330D01*
X1188250Y937670D01*
G01X1173500Y920000D02*
Y940000D01*
X1176500Y936000D01*
G01Y920000D02*
X1170500D01*
G01X1138750Y926670D02*
X1132250D01*
G01X1102250Y936670D02*
X1100750Y938670D01*
X1099000Y939670D01*
X1097000Y940000D01*
X1094500Y939330D01*
X1092750Y937670D01*
X1092250Y935670D01*
X1092500Y933670D01*
X1093500Y932000D01*
X1098500Y928670D01*
X1100750Y926330D01*
X1102250Y923000D01*
X1102750Y920000D01*
X1092250D01*
G01X1078500Y940000D02*
X1080500Y939330D01*
X1082000Y937670D01*
X1083000Y935670D01*
X1083750Y933000D01*
X1084000Y930000D01*
X1083750Y927000D01*
X1083000Y924330D01*
X1082000Y922330D01*
X1080500Y920670D01*
X1078500Y920000D01*
X1076500Y920670D01*
X1075000Y922330D01*
X1074000Y924330D01*
X1073250Y927000D01*
X1073000Y930000D01*
X1073250Y933000D01*
X1074000Y935670D01*
X1075000Y937670D01*
X1076500Y939330D01*
X1078500Y940000D01*
G01X1059500D02*
X1061500Y939330D01*
X1063000Y937670D01*
X1064000Y935670D01*
X1064750Y933000D01*
X1065000Y930000D01*
X1064750Y927000D01*
X1064000Y924330D01*
X1063000Y922330D01*
X1061500Y920670D01*
X1059500Y920000D01*
X1057500Y920670D01*
X1056000Y922330D01*
X1055000Y924330D01*
X1054250Y927000D01*
X1054000Y930000D01*
X1054250Y933000D01*
X1055000Y935670D01*
X1056000Y937670D01*
X1057500Y939330D01*
X1059500Y940000D01*
G01X1021500Y920000D02*
X1023500Y920330D01*
X1025250Y921670D01*
X1026750Y923670D01*
X1027750Y926000D01*
X1028250Y928670D01*
Y931330D01*
X1027750Y934000D01*
X1026750Y936330D01*
X1025250Y938330D01*
X1023500Y939670D01*
X1021500Y940000D01*
X1019500Y939670D01*
X1017750Y938330D01*
X1016250Y936330D01*
X1015250Y934000D01*
X1014750Y931330D01*
Y928670D01*
X1015250Y926000D01*
X1016250Y923670D01*
X1017750Y921670D01*
X1019500Y920330D01*
X1021500Y920000D01*
G01X1010000D02*
Y933330D01*
G01Y929670D02*
X1009250Y931330D01*
X1008000Y932670D01*
X1006250Y933330D01*
X1004500Y932670D01*
X1003250Y931330D01*
X1002500Y929670D01*
Y920000D01*
G01Y929670D02*
X1001750Y931330D01*
X1000500Y932670D01*
X998750Y933330D01*
X997000Y932670D01*
X995750Y931330D01*
X995000Y929330D01*
Y920000D01*
G01X1077500Y1290000D02*
Y1310000D01*
X1071250D01*
X1069250Y1309000D01*
X1068000Y1307670D01*
X1067500Y1305000D01*
X1068000Y1302330D01*
X1069500Y1300670D01*
X1071250Y1299670D01*
X1077500D01*
G01X1071250D02*
X1067500Y1290000D01*
G01X1050500D02*
Y1310000D01*
X1059750Y1295670D01*
X1047250D01*
G01X1197500Y1290000D02*
Y1310000D01*
X1191250D01*
X1189250Y1309000D01*
X1188000Y1307670D01*
X1187500Y1305000D01*
X1188000Y1302330D01*
X1189500Y1300670D01*
X1191250Y1299670D01*
X1197500D01*
G01X1191250D02*
X1187500Y1290000D01*
G01X1179000Y1293000D02*
X1177500Y1291330D01*
X1175750Y1290330D01*
X1173500Y1290000D01*
X1171250Y1290670D01*
X1169500Y1292000D01*
X1168250Y1294330D01*
X1168000Y1297000D01*
X1168500Y1299670D01*
X1169750Y1301330D01*
X1171500Y1302670D01*
X1173250Y1303000D01*
X1175000Y1302670D01*
X1177250Y1301330D01*
X1176500Y1310000D01*
X1169750D01*
G01X1267750Y672670D02*
X1265750Y671000D01*
X1263500Y670000D01*
X1261500D01*
X1259500Y671000D01*
X1258000Y672670D01*
X1257250Y675000D01*
X1257750Y677330D01*
X1259000Y679330D01*
X1261250Y680670D01*
X1264250Y681330D01*
X1266000Y682670D01*
X1266750Y685000D01*
X1266250Y687330D01*
X1265000Y689000D01*
X1263250Y690000D01*
X1261500D01*
X1259750Y689330D01*
X1258250Y687670D01*
G01X1244000Y670000D02*
X1243500Y674330D01*
X1242750Y678000D01*
X1241750Y681330D01*
X1240500Y685000D01*
X1238500Y690000D01*
X1248500D01*
G01X1267750Y722670D02*
X1265750Y721000D01*
X1263500Y720000D01*
X1261500D01*
X1259500Y721000D01*
X1258000Y722670D01*
X1257250Y725000D01*
X1257750Y727330D01*
X1259000Y729330D01*
X1261250Y730670D01*
X1264250Y731330D01*
X1266000Y732670D01*
X1266750Y735000D01*
X1266250Y737330D01*
X1265000Y739000D01*
X1263250Y740000D01*
X1261500D01*
X1259750Y739330D01*
X1258250Y737670D01*
G01X1248250Y728330D02*
X1246500Y730670D01*
X1245000Y732000D01*
X1243000Y732670D01*
X1241250Y732000D01*
X1240000Y730670D01*
X1239000Y728670D01*
X1238750Y726330D01*
X1239000Y724330D01*
X1240000Y722330D01*
X1241500Y720670D01*
X1243250Y720000D01*
X1245250Y720670D01*
X1247000Y722670D01*
X1248000Y725670D01*
X1248250Y729000D01*
X1247750Y733330D01*
X1247000Y735670D01*
X1245750Y738000D01*
X1244000Y739670D01*
X1242250Y740000D01*
X1240500Y739330D01*
X1239250Y737670D01*
G01X1267750Y772670D02*
X1265750Y771000D01*
X1263500Y770000D01*
X1261500D01*
X1259500Y771000D01*
X1258000Y772670D01*
X1257250Y775000D01*
X1257750Y777330D01*
X1259000Y779330D01*
X1261250Y780670D01*
X1264250Y781330D01*
X1266000Y782670D01*
X1266750Y785000D01*
X1266250Y787330D01*
X1265000Y789000D01*
X1263250Y790000D01*
X1261500D01*
X1259750Y789330D01*
X1258250Y787670D01*
G01X1249000Y773000D02*
X1247500Y771330D01*
X1245750Y770330D01*
X1243500Y770000D01*
X1241250Y770670D01*
X1239500Y772000D01*
X1238250Y774330D01*
X1238000Y777000D01*
X1238500Y779670D01*
X1239750Y781330D01*
X1241500Y782670D01*
X1243250Y783000D01*
X1245000Y782670D01*
X1247250Y781330D01*
X1246500Y790000D01*
X1239750D01*
G01X1267750Y822670D02*
X1265750Y821000D01*
X1263500Y820000D01*
X1261500D01*
X1259500Y821000D01*
X1258000Y822670D01*
X1257250Y825000D01*
X1257750Y827330D01*
X1259000Y829330D01*
X1261250Y830670D01*
X1264250Y831330D01*
X1266000Y832670D01*
X1266750Y835000D01*
X1266250Y837330D01*
X1265000Y839000D01*
X1263250Y840000D01*
X1261500D01*
X1259750Y839330D01*
X1258250Y837670D01*
G01X1240500Y820000D02*
Y840000D01*
X1249750Y825670D01*
X1237250D01*
G01X1267750Y872670D02*
X1265750Y871000D01*
X1263500Y870000D01*
X1261500D01*
X1259500Y871000D01*
X1258000Y872670D01*
X1257250Y875000D01*
X1257750Y877330D01*
X1259000Y879330D01*
X1261250Y880670D01*
X1264250Y881330D01*
X1266000Y882670D01*
X1266750Y885000D01*
X1266250Y887330D01*
X1265000Y889000D01*
X1263250Y890000D01*
X1261500D01*
X1259750Y889330D01*
X1258250Y887670D01*
G01X1249000Y874000D02*
X1247500Y871670D01*
X1245500Y870330D01*
X1243250Y870000D01*
X1241250Y870330D01*
X1239250Y872000D01*
X1238000Y874000D01*
X1237750Y876000D01*
X1238250Y878330D01*
X1240000Y880000D01*
X1241750Y880670D01*
X1244000D01*
G01X1241750D02*
X1240250Y881670D01*
X1239000Y883330D01*
X1238500Y885330D01*
X1239000Y887330D01*
X1240250Y889000D01*
X1242500Y890000D01*
X1244750Y889670D01*
X1247000Y888330D01*
G01X1267750Y922670D02*
X1265750Y921000D01*
X1263500Y920000D01*
X1261500D01*
X1259500Y921000D01*
X1258000Y922670D01*
X1257250Y925000D01*
X1257750Y927330D01*
X1259000Y929330D01*
X1261250Y930670D01*
X1264250Y931330D01*
X1266000Y932670D01*
X1266750Y935000D01*
X1266250Y937330D01*
X1265000Y939000D01*
X1263250Y940000D01*
X1261500D01*
X1259750Y939330D01*
X1258250Y937670D01*
G01X1248250Y936670D02*
X1246750Y938670D01*
X1245000Y939670D01*
X1243000Y940000D01*
X1240500Y939330D01*
X1238750Y937670D01*
X1238250Y935670D01*
X1238500Y933670D01*
X1239500Y932000D01*
X1244500Y928670D01*
X1246750Y926330D01*
X1248250Y923000D01*
X1248750Y920000D01*
X1238250D01*
G01X1267750Y972670D02*
X1265750Y971000D01*
X1263500Y970000D01*
X1261500D01*
X1259500Y971000D01*
X1258000Y972670D01*
X1257250Y975000D01*
X1257750Y977330D01*
X1259000Y979330D01*
X1261250Y980670D01*
X1264250Y981330D01*
X1266000Y982670D01*
X1266750Y985000D01*
X1266250Y987330D01*
X1265000Y989000D01*
X1263250Y990000D01*
X1261500D01*
X1259750Y989330D01*
X1258250Y987670D01*
G01X1243500Y970000D02*
Y990000D01*
X1246500Y986000D01*
G01Y970000D02*
X1240500D01*
G01X1547750Y1160000D02*
X1537250Y1180000D01*
G01X1547750D02*
X1537250Y1160000D01*
G01X1528250Y1176670D02*
X1526750Y1178670D01*
X1525000Y1179670D01*
X1523000Y1180000D01*
X1520500Y1179330D01*
X1518750Y1177670D01*
X1518250Y1175670D01*
X1518500Y1173670D01*
X1519500Y1172000D01*
X1524500Y1168670D01*
X1526750Y1166330D01*
X1528250Y1163000D01*
X1528750Y1160000D01*
X1518250D01*
G01X1707500Y1290000D02*
Y1310000D01*
X1701250D01*
X1699250Y1309000D01*
X1698000Y1307670D01*
X1697500Y1305000D01*
X1698000Y1302330D01*
X1699500Y1300670D01*
X1701250Y1299670D01*
X1707500D01*
G01X1701250D02*
X1697500Y1290000D01*
G01X1683500D02*
Y1310000D01*
X1686500Y1306000D01*
G01Y1290000D02*
X1680500D01*
G01X1664500D02*
X1662750Y1290330D01*
X1660750Y1291330D01*
X1659500Y1293000D01*
X1659000Y1295330D01*
X1659500Y1297670D01*
X1661000Y1299670D01*
X1663250Y1300670D01*
X1665750D01*
X1667250Y1301330D01*
X1668500Y1303000D01*
X1669000Y1305330D01*
X1668250Y1307670D01*
X1666500Y1309330D01*
X1664500Y1310000D01*
X1662500Y1309330D01*
X1660750Y1307670D01*
X1660000Y1305330D01*
X1660500Y1303000D01*
X1661750Y1301330D01*
X1663250Y1300670D01*
X1665750D01*
X1668000Y1299670D01*
X1669500Y1297670D01*
X1670000Y1295330D01*
X1669500Y1293000D01*
X1668250Y1291330D01*
X1666250Y1290330D01*
X1664500Y1290000D01*
G01X1817500D02*
Y1310000D01*
X1811250D01*
X1809250Y1309000D01*
X1808000Y1307670D01*
X1807500Y1305000D01*
X1808000Y1302330D01*
X1809500Y1300670D01*
X1811250Y1299670D01*
X1817500D01*
G01X1811250D02*
X1807500Y1290000D01*
G01X1798250Y1306670D02*
X1796750Y1308670D01*
X1795000Y1309670D01*
X1793000Y1310000D01*
X1790500Y1309330D01*
X1788750Y1307670D01*
X1788250Y1305670D01*
X1788500Y1303670D01*
X1789500Y1302000D01*
X1794500Y1298670D01*
X1796750Y1296330D01*
X1798250Y1293000D01*
X1798750Y1290000D01*
X1788250D01*
G01X1774500Y1310000D02*
X1776500Y1309330D01*
X1778000Y1307670D01*
X1779000Y1305670D01*
X1779750Y1303000D01*
X1780000Y1300000D01*
X1779750Y1297000D01*
X1779000Y1294330D01*
X1778000Y1292330D01*
X1776500Y1290670D01*
X1774500Y1290000D01*
X1772500Y1290670D01*
X1771000Y1292330D01*
X1770000Y1294330D01*
X1769250Y1297000D01*
X1769000Y1300000D01*
X1769250Y1303000D01*
X1770000Y1305670D01*
X1771000Y1307670D01*
X1772500Y1309330D01*
X1774500Y1310000D01*
G01X1927500Y1290000D02*
Y1310000D01*
X1921250D01*
X1919250Y1309000D01*
X1918000Y1307670D01*
X1917500Y1305000D01*
X1918000Y1302330D01*
X1919500Y1300670D01*
X1921250Y1299670D01*
X1927500D01*
G01X1921250D02*
X1917500Y1290000D01*
G01X1908250Y1306670D02*
X1906750Y1308670D01*
X1905000Y1309670D01*
X1903000Y1310000D01*
X1900500Y1309330D01*
X1898750Y1307670D01*
X1898250Y1305670D01*
X1898500Y1303670D01*
X1899500Y1302000D01*
X1904500Y1298670D01*
X1906750Y1296330D01*
X1908250Y1293000D01*
X1908750Y1290000D01*
X1898250D01*
G01X1884500D02*
Y1310000D01*
X1887500Y1306000D01*
G01Y1290000D02*
X1881500D01*
G01X2077750Y472670D02*
X2075750Y471000D01*
X2073500Y470000D01*
X2071500D01*
X2069500Y471000D01*
X2068000Y472670D01*
X2067250Y475000D01*
X2067750Y477330D01*
X2069000Y479330D01*
X2071250Y480670D01*
X2074250Y481330D01*
X2076000Y482670D01*
X2076750Y485000D01*
X2076250Y487330D01*
X2075000Y489000D01*
X2073250Y490000D01*
X2071500D01*
X2069750Y489330D01*
X2068250Y487670D01*
G01X2053500Y470000D02*
Y490000D01*
X2056500Y486000D01*
G01Y470000D02*
X2050500D01*
G01X2034500D02*
Y490000D01*
X2037500Y486000D01*
G01Y470000D02*
X2031500D01*
G01X2018750Y476670D02*
X2012250D01*
G01X2001250Y486670D02*
X1999750Y488670D01*
X1998000Y489670D01*
X1996000Y490000D01*
X1993500Y489330D01*
X1991750Y487670D01*
X1991250Y485670D01*
X1991500Y483670D01*
X1992500Y482000D01*
X1997500Y478670D01*
X1999750Y476330D01*
X2001250Y473000D01*
X2001750Y470000D01*
X1991250D01*
G01X2077750Y522670D02*
X2075750Y521000D01*
X2073500Y520000D01*
X2071500D01*
X2069500Y521000D01*
X2068000Y522670D01*
X2067250Y525000D01*
X2067750Y527330D01*
X2069000Y529330D01*
X2071250Y530670D01*
X2074250Y531330D01*
X2076000Y532670D01*
X2076750Y535000D01*
X2076250Y537330D01*
X2075000Y539000D01*
X2073250Y540000D01*
X2071500D01*
X2069750Y539330D01*
X2068250Y537670D01*
G01X2053500Y520000D02*
Y540000D01*
X2056500Y536000D01*
G01Y520000D02*
X2050500D01*
G01X2034500D02*
Y540000D01*
X2037500Y536000D01*
G01Y520000D02*
X2031500D01*
G01X2018750Y526670D02*
X2012250D01*
G01X1996500Y520000D02*
Y540000D01*
X1999500Y536000D01*
G01Y520000D02*
X1993500D01*
G01X2037500Y1290000D02*
Y1310000D01*
X2031250D01*
X2029250Y1309000D01*
X2028000Y1307670D01*
X2027500Y1305000D01*
X2028000Y1302330D01*
X2029500Y1300670D01*
X2031250Y1299670D01*
X2037500D01*
G01X2031250D02*
X2027500Y1290000D01*
G01X2018250Y1306670D02*
X2016750Y1308670D01*
X2015000Y1309670D01*
X2013000Y1310000D01*
X2010500Y1309330D01*
X2008750Y1307670D01*
X2008250Y1305670D01*
X2008500Y1303670D01*
X2009500Y1302000D01*
X2014500Y1298670D01*
X2016750Y1296330D01*
X2018250Y1293000D01*
X2018750Y1290000D01*
X2008250D01*
G01X1999250Y1306670D02*
X1997750Y1308670D01*
X1996000Y1309670D01*
X1994000Y1310000D01*
X1991500Y1309330D01*
X1989750Y1307670D01*
X1989250Y1305670D01*
X1989500Y1303670D01*
X1990500Y1302000D01*
X1995500Y1298670D01*
X1997750Y1296330D01*
X1999250Y1293000D01*
X1999750Y1290000D01*
X1989250D01*
G01X2067750Y780000D02*
X2057250Y800000D01*
G01X2067750D02*
X2057250Y780000D01*
G01X2049000Y784000D02*
X2047500Y781670D01*
X2045500Y780330D01*
X2043250Y780000D01*
X2041250Y780330D01*
X2039250Y782000D01*
X2038000Y784000D01*
X2037750Y786000D01*
X2038250Y788330D01*
X2040000Y790000D01*
X2041750Y790670D01*
X2044000D01*
G01X2041750D02*
X2040250Y791670D01*
X2039000Y793330D01*
X2038500Y795330D01*
X2039000Y797330D01*
X2040250Y799000D01*
X2042500Y800000D01*
X2044750Y799670D01*
X2047000Y798330D01*
G01X2147500Y1290000D02*
Y1310000D01*
X2141250D01*
X2139250Y1309000D01*
X2138000Y1307670D01*
X2137500Y1305000D01*
X2138000Y1302330D01*
X2139500Y1300670D01*
X2141250Y1299670D01*
X2147500D01*
G01X2141250D02*
X2137500Y1290000D01*
G01X2123500D02*
Y1310000D01*
X2126500Y1306000D01*
G01Y1290000D02*
X2120500D01*
G01X2105000D02*
X2104500Y1294330D01*
X2103750Y1298000D01*
X2102750Y1301330D01*
X2101500Y1305000D01*
X2099500Y1310000D01*
X2109500D01*
G01X2207750Y1022670D02*
X2205750Y1021000D01*
X2203500Y1020000D01*
X2201500D01*
X2199500Y1021000D01*
X2198000Y1022670D01*
X2197250Y1025000D01*
X2197750Y1027330D01*
X2199000Y1029330D01*
X2201250Y1030670D01*
X2204250Y1031330D01*
X2206000Y1032670D01*
X2206750Y1035000D01*
X2206250Y1037330D01*
X2205000Y1039000D01*
X2203250Y1040000D01*
X2201500D01*
X2199750Y1039330D01*
X2198250Y1037670D01*
G01X2183500Y1020000D02*
Y1040000D01*
X2186500Y1036000D01*
G01Y1020000D02*
X2180500D01*
G01X2169250Y1036670D02*
X2167750Y1038670D01*
X2166000Y1039670D01*
X2164000Y1040000D01*
X2161500Y1039330D01*
X2159750Y1037670D01*
X2159250Y1035670D01*
X2159500Y1033670D01*
X2160500Y1032000D01*
X2165500Y1028670D01*
X2167750Y1026330D01*
X2169250Y1023000D01*
X2169750Y1020000D01*
X2159250D01*
M02*
