G04 ================== begin FILE IDENTIFICATION RECORD ==================*
G04 Layout Name:  e:/ORCAD_sch/RZSK/HF_filter/v4/pcb/v3.brd*
G04 Film Name:    TOP*
G04 File Format:  Gerber RS274X*
G04 File Origin:  Cadence Allegro 16.5-S013*
G04 Origin Date:  Fri Mar 02 09:51:18 2012*
G04 *
G04 Layer:  ETCH/TOP*
G04 Layer:  PIN/TOP*
G04 Layer:  VIA CLASS/TOP*
G04 *
G04 Offset:    (0.000 0.000)*
G04 Mirror:    No*
G04 Mode:      Positive*
G04 Rotation:  0*
G04 FullContactRelief:  No*
G04 UndefLineWidth:     0.250*
G04 ================== end FILE IDENTIFICATION RECORD ====================*
%FSLAX35Y35*MOMM*%
%IR0*IPPOS*OFA0.00000B0.00000*MIA0B0*SFA1.00000B1.00000*%
%ADD15C,4.*%
%ADD13C,3.2*%
%ADD10C,6.*%
%ADD11C,2.5*%
%ADD12R,3.X3.*%
%ADD17R,4.X4.*%
%ADD16C,6.5*%
%ADD14R,2.5X2.5*%
%ADD18C,2.*%
G75*
%LPD*%
G75*
G36*
G01X17950000Y9100000D02*
Y9200000D01*
X18050000D01*
Y9100000D01*
X17950000D01*
G37*
G54D10*
X6100000Y4300000D03*
Y13300000D03*
X9900000Y6800000D03*
X18000000D03*
X22100000Y4300000D03*
Y13300000D03*
G54D11*
X6800000Y5600000D03*
Y8300000D03*
X7200000Y9900000D03*
X7700000D03*
X8300000D03*
X8800000D03*
X9400000D03*
X9900000D03*
X10500000D03*
X11000000D03*
X11600000D03*
X12100000D03*
X13100000Y5800000D03*
X13600000D03*
Y10400000D03*
Y10900000D03*
X13800000Y11500000D03*
X14100000Y6300000D03*
Y6800000D03*
Y7300000D03*
Y7800000D03*
Y8300000D03*
Y8800000D03*
Y9300000D03*
Y9800000D03*
Y10400000D03*
X14400000Y5400000D03*
X14300000Y11500000D03*
X14600000Y6800000D03*
Y7300000D03*
Y7800000D03*
Y8300000D03*
Y8800000D03*
Y9300000D03*
X14900000Y5400000D03*
X15000000Y10050000D03*
Y10900000D03*
X16100000Y13400000D03*
X16600000D03*
X17200000D03*
X17700000D03*
X18300000D03*
X18800000D03*
X19400000D03*
X19900000Y9400000D03*
Y13400000D03*
X20650000Y4400000D03*
X20500000Y8900000D03*
Y9400000D03*
Y13400000D03*
X21000000D03*
X21100000Y5300000D03*
Y5800000D03*
X21800000Y5300000D03*
Y5800000D03*
G54D12*
X6800000Y6500000D03*
X15350000Y12600000D03*
X21500000Y9100000D03*
G54D13*
X6800000Y7325000D03*
X12875000Y12600000D03*
X13700000D03*
X14525000D03*
X21500000Y6625000D03*
Y7450000D03*
Y8275000D03*
G54D14*
X7200000Y13400000D03*
X7700000D03*
X8300000D03*
X8800000D03*
X9400000D03*
X9900000D03*
X10500000D03*
X11000000D03*
X11600000D03*
X12100000D03*
X16100000Y9900000D03*
X16600000D03*
X17200000D03*
X17700000D03*
X18300000D03*
X18800000D03*
X19400000D03*
X19900000D03*
X20500000D03*
X21000000D03*
G54D15*
X7450000Y4600000D03*
X13500000Y6800000D03*
Y7300000D03*
Y7800000D03*
Y8300000D03*
Y8800000D03*
Y9300000D03*
Y9800000D03*
X22000000Y9900000D03*
G54D16*
X12500000Y4550000D03*
G54D17*
X13000000Y6800000D03*
Y7300000D03*
Y7800000D03*
Y8300000D03*
Y8800000D03*
Y9300000D03*
Y9800000D03*
X21500000Y9900000D03*
G54D18*
G01X6800000Y5600000D02*
Y6500000D01*
G01Y7325000D02*
Y8300000D01*
G01X7700000Y13400000D02*
X7200000D01*
G01X8300000D02*
X7700000D01*
G01X8800000D02*
X8300000D01*
G01X9400000D02*
X8800000D01*
G01X9900000D02*
X9400000D01*
G01X10500000D02*
X9900000D01*
G01X11000000D02*
X10500000D01*
G01X11600000D02*
X11000000D01*
G01X12100000D02*
X11600000D01*
G01X12100000D02*
X12900000D01*
X13700000Y12600000D01*
G01X13100000Y5800000D02*
X13485400Y5414600D01*
G03X13520700Y5400000I35311J35400D01*
G01X14400000D01*
G01X13000000Y6800000D02*
Y7300000D01*
G01Y7800000D02*
Y7300000D01*
G01Y8300000D02*
Y7800000D01*
G01Y8800000D02*
Y8300000D01*
G01Y9300000D02*
Y8800000D01*
G01Y9800000D02*
Y9300000D01*
G01X13600000Y10400000D02*
X13307900D01*
G03X13272600Y10385400I11J-50000D01*
G01X13014600Y10127400D01*
G03X13000000Y10092100I35400J-35311D01*
G01Y9800000D01*
G01X14900000Y5400000D02*
X14514600Y5785400D01*
G03X14479300Y5800000I-35311J-35400D01*
G01X13600000D01*
G01X14100000Y6800000D02*
X13500000D01*
G01X14100000Y7300000D02*
X13500000D01*
G01X14100000Y7800000D02*
X13500000D01*
G01X14100000Y8300000D02*
X13500000D01*
G01X14100000Y8800000D02*
X13500000D01*
G01Y9300000D02*
X14100000D01*
G01Y9800000D02*
X13500000D01*
G01X13600000Y10900000D02*
X14973100D01*
G01X14600000Y6800000D02*
X14100000D01*
G01X14600000Y7300000D02*
X14100000D01*
G01X14600000Y7800000D02*
X14100000D01*
G01X14600000Y8300000D02*
X14100000D01*
G01X14600000Y8800000D02*
X14100000D01*
G01Y9300000D02*
X14600000D01*
G01X20500000Y8900000D02*
X16270700D01*
G02X16235400Y8914600I11J50000D01*
G01X15514600Y9635400D01*
G02X15500000Y9670700I35400J35311D01*
G01Y10129300D01*
G03X15485400Y10164600I-50000J-11D01*
G01X15264600Y10385400D01*
G03X15229300Y10400000I-35311J-35400D01*
G01X14100000D01*
G01X14525000Y12600000D02*
Y11725000D01*
X14300000Y11500000D01*
G01X15000000Y10050000D02*
Y8220700D01*
G02X14985400Y8185400I-50000J11D01*
G01X14600000Y7800000D01*
G01X14973100Y10900000D02*
X15350000Y11276900D01*
Y12600000D01*
G01X14973100Y10900000D02*
X15000000D01*
G01X16100000Y9900000D02*
X16600000D01*
G01X16100000Y13400000D02*
X16600000D01*
G01X17200000Y9900000D02*
X16600000D01*
G01X17200000Y13400000D02*
X16600000D01*
G01X17700000Y9900000D02*
X17200000D01*
G01X17700000Y13400000D02*
X17200000D01*
G01X18300000Y9900000D02*
X17700000D01*
G01X18300000Y13400000D02*
X17700000D01*
G01X18800000Y9900000D02*
X18300000D01*
G01X18800000Y13400000D02*
X18300000D01*
G01X19400000Y9900000D02*
X18800000D01*
G01X19400000Y13400000D02*
X18800000D01*
G01X19900000Y9900000D02*
X19400000D01*
G01X19900000Y13400000D02*
X19400000D01*
G01X19900000Y9400000D02*
Y9900000D01*
G01X20500000D02*
X19900000D01*
G01X20500000Y13400000D02*
X19900000D01*
G01X20500000Y8900000D02*
X20685400Y9085400D01*
G02X20720700Y9100000I35311J-35400D01*
G01X21500000D01*
G01X20500000Y9400000D02*
Y9900000D01*
G01X21000000D02*
X20500000D01*
G01X21000000Y13400000D02*
X20500000D01*
G01X22000000Y9900000D02*
Y11900000D01*
X21150000Y12750000D01*
Y13250000D01*
X21000000Y13400000D01*
G01X21100000Y5300000D02*
X21279300D01*
G03X21314600Y5314600I-11J50000D01*
G01X21800000Y5800000D01*
G01X21100000D02*
Y6204300D01*
G02X21114600Y6239600I50000J-11D01*
G01X21500000Y6625000D01*
G01X21000000Y9900000D02*
X21500000D01*
G01Y8275000D02*
Y7450000D01*
G01D02*
X21953600Y6996400D01*
G02X21968200Y6961100I-35400J-35311D01*
G01Y5988900D01*
G02X21953600Y5953600I-50000J11D01*
G01X21800000Y5800000D01*
G01X22000000Y9900000D02*
Y8795700D01*
G02X21985400Y8760400I-50000J11D01*
G01X21500000Y8275000D01*
M02*
