M48
METRIC
T01C1.2
T02C1.5
T03C2.2
T04C4.5
T05C3.2
;LEADER: 12 
;HEADER: 
;CODE  : ASCII 
;FILE  : v3-bl-1-2.drl for board v3.brd ... layers 1 and 2
;T01 Holesize 1. = 1.200000 Tolerance = +0.000000/-0.000000 PLATED MM Quantity = 75
;T02 Holesize 2. = 1.500000 Tolerance = +0.000000/-0.000000 PLATED MM Quantity = 10
;T03 Holesize 3. = 2.200000 Tolerance = +0.000000/-0.000000 PLATED MM Quantity = 17
;T04 Holesize 4. = 4.500000 Tolerance = +0.000000/-0.000000 PLATED MM Quantity = 1
;T05 Holesize 5. = 3.200000 Tolerance = +0.000000/-0.000000 NON_PLATED MM Quantity = 6
%
G90
T01
X0720000Y1340000
X0720000Y0990000
X1210000Y1340000
X1210000Y0990000
X1610000Y0990000
X1610000Y1340000
X1720000Y0990000
X1720000Y1340000
X1830000Y0990000
X1830000Y1340000
X1940000Y0990000
X1940000Y1340000
X2100000Y0990000
X2100000Y1340000
X1660000Y0990000
X1660000Y1340000
X2050000Y0990000
X2050000Y1340000
X0830000Y1340000
X0830000Y0990000
X1770000Y0990000
X1770000Y1340000
X1880000Y0990000
X1880000Y1340000
X1990000Y0990000
X1990000Y1340000
X0940000Y1340000
X0940000Y0990000
X1050000Y1340000
X1050000Y0990000
X1160000Y1340000
X1160000Y0990000
X0770000Y1340000
X0770000Y0990000
X0880000Y1340000
X0880000Y0990000
X0990000Y1340000
X0990000Y0990000
X1100000Y1340000
X1100000Y0990000
X2180000Y0530000
X2180000Y0580000
X2110000Y0530000
X2065000Y0440000
X1360000Y1090000
X1360000Y1040000
X1410000Y1040000
X1500000Y1090000
X1500000Y1005000
X0680000Y0560000
X0680000Y0830000
X1310000Y0580000
X1360000Y0580000
X1440000Y0540000
X1430000Y1150000
X1490000Y0540000
X1380000Y1150000
X1410000Y0630000
X1410000Y0880000
X1460000Y0880000
X1410000Y0930000
X1460000Y0930000
X1410000Y0980000
X2110000Y0580000
X1990000Y0940000
X2050000Y0940000
X2050000Y0890000
X1410000Y0680000
X1460000Y0680000
X1410000Y0730000
X1460000Y0730000
X1410000Y0780000
X1460000Y0780000
X1410000Y0830000
X1460000Y0830000
T02
X0680000Y0650000
X0680000Y0732500
X1535000Y1260000
R03X-0082500
X2150000Y0910000
R03Y-0082500
T03
X1300000Y0980000
X1350000Y0980000
X2150000Y0990000
X2200000Y0990000
X1300000Y0930000
X1350000Y0930000
X1300000Y0880000
X1350000Y0880000
X1300000Y0830000
X1350000Y0830000
X1300000Y0780000
X1350000Y0780000
X1300000Y0730000
X1350000Y0730000
X1300000Y0680000
X1350000Y0680000
X0745000Y0460000
T04
X1250000Y0455000
T05
X0610000Y0430000
X0990000Y0680000
X1800000Y0680000
X0610000Y1330000
X2210000Y1330000
X2210000Y0430000
M30
