G04 ================== begin FILE IDENTIFICATION RECORD ==================*
G04 Layout Name:  E:/ORCAD_sch/RZSK/HF_filter/v4/pcb/v3.brd*
G04 Film Name:    BOTTOM*
G04 File Format:  Gerber RS274X*
G04 File Origin:  Cadence Allegro 16.5-S013*
G04 Origin Date:  Sun Mar 11 10:26:31 2012*
G04 *
G04 Layer:  ETCH/BOTTOM*
G04 Layer:  PIN/BOTTOM*
G04 Layer:  VIA CLASS/BOTTOM*
G04 *
G04 Offset:    (0.000 0.000)*
G04 Mirror:    No*
G04 Mode:      Positive*
G04 Rotation:  0*
G04 FullContactRelief:  No*
G04 UndefLineWidth:     0.250*
G04 ================== end FILE IDENTIFICATION RECORD ====================*
%FSLAX34Y34*MOMM*%
%IR0*IPPOS*OFA0.00000B0.00000*MIA0B0*SFA1.00000B1.00000*%
%ADD15C,4.*%
%ADD13C,3.2*%
%ADD10C,6.*%
%ADD11C,2.5*%
%ADD12R,3.X3.*%
%ADD17R,4.X4.*%
%ADD16C,6.5*%
%ADD14R,2.5X2.5*%
%ADD18C,1.*%
%ADD19C,2.*%
%ADD20C,.75*%
%ADD21C,3.004*%
%ADD28C,3.204*%
%ADD22C,7.004*%
%ADD26C,4.404*%
%ADD24C,4.504*%
%ADD27C,3.704*%
%ADD29C,3.904*%
%ADD23C,14.004*%
%ADD25C,14.142*%
G75*
%LPD*%
G75*
G36*
G01X684750Y406810D02*
X679930Y412630D01*
G02X678780Y415820I3850J3190D01*
G01Y416420D01*
X678870Y417400D01*
X678910Y417600D01*
G03X601900Y499540I-68910J12394D01*
G01X601610Y499510D01*
X601580D01*
X601130Y499460D01*
G02X597310Y500690I-506J4975D01*
G01X591700Y505630D01*
X590890Y506340D01*
X590000Y508300D01*
Y894980D01*
G02X595000Y899980I5000J0D01*
G01X1121100D01*
X1121620Y899870D01*
X1122340Y899720D01*
G02X1124820Y898370I-1054J-4889D01*
G01X1188620Y834750D01*
G02X1189980Y831430I-3641J-3430D01*
G01Y595490D01*
G03X1190170Y594130I5000J5D01*
G01X1190260Y593840D01*
X1190740Y592670D01*
X1191330Y592070D01*
X1191390Y592010D01*
G03X1191420Y591980I3551J3521D01*
G01X1306980Y476420D01*
G03X1307010Y476390I3551J3521D01*
G01X1307070Y476330D01*
X1307670Y475740D01*
X1308840Y475260D01*
X1309130Y475170D01*
G03X1310490Y474980I1365J4810D01*
G01X2105000D01*
G02X2110000Y469980I0J-5000D01*
G01Y410000D01*
G02X2105000Y405000I-5000J0D01*
G01X688600D01*
G02X684750Y406810I0J5000D01*
G37*
G36*
G01X1473710Y527650D02*
X1467450Y517780D01*
G02X1462380Y515000I-5064J3222D01*
G01X1455500D01*
G02X1449500Y521000I0J6000D01*
G01Y522360D01*
X1450660Y524790D01*
X1451710Y525650D01*
G03X1423240Y532110I-11712J14349D01*
G01X1423900Y530710D01*
X1423710Y527650D01*
X1417450Y517780D01*
G02X1412380Y515000I-5064J3222D01*
G01X1326290D01*
X1324090Y515910D01*
X1323240Y516760D01*
X1231760Y608240D01*
X1230910Y609090D01*
X1230000Y611290D01*
Y847520D01*
G03X1228240Y851760I-6001J-6D01*
G01X1141510Y938250D01*
G03X1137280Y940000I-4236J-4251D01*
G01X596000D01*
G02X590000Y946000I0J6000D01*
G01Y1247770D01*
G02X590130Y1249010I6000J-2D01*
G01X590520Y1250830D01*
X591030Y1251990D01*
X598550Y1258810D01*
G02X603150Y1260340I4032J-4443D01*
G01X603180D01*
G03X679660Y1336820I6820J69660D01*
G01Y1336850D01*
G02X681190Y1341450I5973J568D01*
G01X687160Y1348030D01*
G02X689170Y1349480I4439J-4035D01*
G01X690330Y1350000D01*
X695480D01*
G02X699720Y1348240I-5J-5999D01*
G02X701480Y1344000I-4239J-4245D01*
G01Y1327480D01*
G03X707480Y1321480I6000J0D01*
G01X732520D01*
G03X738520Y1327480I0J6000D01*
G01Y1344000D01*
G02X740280Y1348240I5999J-5D01*
G02X744520Y1350000I4245J-4239D01*
G01X745480D01*
G02X749720Y1348240I-5J-5999D01*
G02X751480Y1344000I-4239J-4245D01*
G01Y1327480D01*
G03X757480Y1321480I6000J0D01*
G01X782520D01*
G03X788520Y1327480I0J6000D01*
G01Y1344000D01*
G02X790280Y1348240I5999J-5D01*
G02X794520Y1350000I4245J-4239D01*
G01X805480D01*
G02X809720Y1348240I-5J-5999D01*
G02X811480Y1344000I-4239J-4245D01*
G01Y1327480D01*
G03X817480Y1321480I6000J0D01*
G01X842520D01*
G03X848520Y1327480I0J6000D01*
G01Y1344000D01*
G02X850280Y1348240I5999J-5D01*
G02X854520Y1350000I4245J-4239D01*
G01X855480D01*
G02X859720Y1348240I-5J-5999D01*
G02X861480Y1344000I-4239J-4245D01*
G01Y1327480D01*
G03X867480Y1321480I6000J0D01*
G01X892520D01*
G03X898520Y1327480I0J6000D01*
G01Y1344000D01*
G02X900280Y1348240I5999J-5D01*
G02X904520Y1350000I4245J-4239D01*
G01X915480D01*
G02X919720Y1348240I-5J-5999D01*
G02X921480Y1344000I-4239J-4245D01*
G01Y1327480D01*
G03X927480Y1321480I6000J0D01*
G01X952520D01*
G03X958520Y1327480I0J6000D01*
G01Y1344000D01*
G02X960280Y1348240I5999J-5D01*
G02X964520Y1350000I4245J-4239D01*
G01X965480D01*
G02X969720Y1348240I-5J-5999D01*
G02X971480Y1344000I-4239J-4245D01*
G01Y1327480D01*
G03X977480Y1321480I6000J0D01*
G01X1002520D01*
G03X1008520Y1327480I0J6000D01*
G01Y1344000D01*
G02X1010280Y1348240I5999J-5D01*
G02X1014520Y1350000I4245J-4239D01*
G01X1025480D01*
G02X1029720Y1348240I-5J-5999D01*
G02X1031480Y1344000I-4239J-4245D01*
G01Y1327480D01*
G03X1037480Y1321480I6000J0D01*
G01X1062520D01*
G03X1068520Y1327480I0J6000D01*
G01Y1344000D01*
G02X1070280Y1348240I5999J-5D01*
G02X1074520Y1350000I4245J-4239D01*
G01X1075480D01*
G02X1079720Y1348240I-5J-5999D01*
G02X1081480Y1344000I-4239J-4245D01*
G01Y1327480D01*
G03X1087480Y1321480I6000J0D01*
G01X1112520D01*
G03X1118520Y1327480I0J6000D01*
G01Y1344000D01*
G02X1120280Y1348240I5999J-5D01*
G02X1124520Y1350000I4245J-4239D01*
G01X1135480D01*
G02X1139720Y1348240I-5J-5999D01*
G02X1141480Y1344000I-4239J-4245D01*
G01Y1327480D01*
G03X1147480Y1321480I6000J0D01*
G01X1172520D01*
G03X1178520Y1327480I0J6000D01*
G01Y1344000D01*
G02X1180280Y1348240I5999J-5D01*
G02X1184520Y1350000I4245J-4239D01*
G01X1185480D01*
G02X1189720Y1348240I-5J-5999D01*
G02X1191480Y1344000I-4239J-4245D01*
G01Y1327480D01*
G03X1197480Y1321480I6000J0D01*
G01X1222520D01*
G03X1228520Y1327480I0J6000D01*
G01Y1344000D01*
G02X1230280Y1348240I5999J-5D01*
G02X1234520Y1350000I4245J-4239D01*
G01X1578980D01*
G02X1580110Y1349890I-14J-5998D01*
G01X1581750Y1349580D01*
X1582820Y1349160D01*
X1589630Y1342770D01*
G02X1590960Y1340950I-4091J-4386D01*
G01X1591440Y1339930D01*
X1591520Y1338790D01*
Y1338780D01*
G03X1628270Y1343010I18479J1208D01*
G01Y1343030D01*
X1628190Y1344000D01*
G02X1629950Y1348240I5999J-5D01*
G02X1634190Y1350000I4245J-4239D01*
G01X1635810D01*
G02X1640050Y1348240I-5J-5999D01*
G02X1641810Y1344000I-4239J-4245D01*
G01X1641730Y1343030D01*
Y1343010D01*
G03X1678480Y1338780I18271J-3022D01*
G01Y1338790D01*
X1678560Y1339930D01*
X1679040Y1340950D01*
G02X1680370Y1342770I5421J-2566D01*
G01X1686350Y1348380D01*
G02X1688250Y1349580I4097J-4383D01*
G01X1689310Y1350000D01*
X1695810D01*
G02X1700050Y1348240I-5J-5999D01*
G02X1701810Y1344000I-4239J-4245D01*
G01X1701730Y1343030D01*
Y1343020D01*
G03X1738270I18270J-3020D01*
G01Y1343030D01*
X1738190Y1344000D01*
G02X1739950Y1348240I5999J-5D01*
G02X1744190Y1350000I4245J-4239D01*
G01X1745810D01*
G02X1750050Y1348240I-5J-5999D01*
G02X1751810Y1344000I-4239J-4245D01*
G01X1751730Y1343030D01*
Y1343010D01*
G03X1788480Y1338780I18271J-3022D01*
G01Y1338790D01*
X1788560Y1339930D01*
X1789040Y1340950D01*
G02X1790370Y1342770I5421J-2566D01*
G01X1796350Y1348380D01*
G02X1798250Y1349580I4097J-4383D01*
G01X1799310Y1350000D01*
X1805810D01*
G02X1810050Y1348240I-5J-5999D01*
G02X1811810Y1344000I-4239J-4245D01*
G01X1811730Y1343030D01*
Y1343020D01*
G03X1848270I18270J-3020D01*
G01Y1343030D01*
X1848190Y1344000D01*
G02X1849950Y1348240I5999J-5D01*
G02X1854190Y1350000I4245J-4239D01*
G01X1855810D01*
G02X1860050Y1348240I-5J-5999D01*
G02X1861810Y1344000I-4239J-4245D01*
G01X1861730Y1343030D01*
Y1343010D01*
G03X1898480Y1338780I18271J-3022D01*
G01Y1338790D01*
X1898560Y1339930D01*
X1899040Y1340950D01*
G02X1900370Y1342770I5421J-2566D01*
G01X1906350Y1348380D01*
G02X1908250Y1349580I4097J-4383D01*
G01X1909310Y1350000D01*
X1915810D01*
G02X1920050Y1348240I-5J-5999D01*
G02X1921810Y1344000I-4239J-4245D01*
G01X1921730Y1343030D01*
Y1343020D01*
G03X1958270I18270J-3020D01*
G01Y1343030D01*
X1958190Y1344000D01*
G02X1959950Y1348240I5999J-5D01*
G02X1964190Y1350000I4245J-4239D01*
G01X1965810D01*
G02X1970050Y1348240I-5J-5999D01*
G02X1971810Y1344000I-4239J-4245D01*
G01X1971730Y1343030D01*
Y1343010D01*
G03X2008480Y1338780I18271J-3022D01*
G01Y1338790D01*
X2008560Y1339930D01*
X2009040Y1340950D01*
G02X2010370Y1342770I5421J-2566D01*
G01X2016350Y1348380D01*
G02X2018250Y1349580I4097J-4383D01*
G01X2019310Y1350000D01*
X2025810D01*
G02X2030050Y1348240I-5J-5999D01*
G02X2031810Y1344000I-4239J-4245D01*
G01X2031730Y1343030D01*
Y1343020D01*
G03X2068270I18270J-3020D01*
G01Y1343030D01*
X2068190Y1344000D01*
G02X2069950Y1348240I5999J-5D01*
G02X2074190Y1350000I4245J-4239D01*
G01X2075810D01*
G02X2080050Y1348240I-5J-5999D01*
G02X2081810Y1344000I-4239J-4245D01*
G01X2081730Y1343030D01*
Y1343010D01*
G03X2118480Y1338780I18271J-3022D01*
G01Y1338790D01*
X2118560Y1339930D01*
X2119040Y1340950D01*
G02X2120370Y1342770I5421J-2566D01*
G01X2126350Y1348380D01*
G02X2128250Y1349580I4097J-4383D01*
G01X2129310Y1350000D01*
X2131770D01*
G02X2136380Y1347840I-1J-6001D01*
G01X2138720Y1345020D01*
G02X2140050Y1340310I-4608J-3844D01*
G03X2216840Y1259620I69952J-10313D01*
G01X2218120Y1259740D01*
X2220510Y1258950D01*
X2228030Y1252120D01*
G02X2230000Y1247680I-4029J-4444D01*
G01Y1230000D01*
X2229990D01*
Y1023500D01*
G02X2227070Y1018350I-5999J-1D01*
G01X2216860Y1012240D01*
X2213720Y1012170D01*
X2212310Y1012920D01*
G03X2185400Y1011530I-12307J-22922D01*
G01X2184650Y1011030D01*
X2182930Y1010500D01*
X2182020D01*
G02X2177770Y1012260I-5J6000D01*
G01X2175770Y1014260D01*
G03X2171520Y1016020I-4245J-4240D01*
G01X2129980D01*
G03X2124420Y1012270I0J-5997D01*
G01X2123730Y1010570D01*
X2120690Y1008520D01*
X2087480D01*
G03X2081480Y1002520I0J-6000D01*
G01Y977480D01*
G03X2087480Y971480I6000J0D01*
G01X2117980D01*
G02X2122220Y969720I-5J-5999D01*
G02X2123980Y965480I-4239J-4245D01*
G01Y963980D01*
X2170020D01*
G03X2174270Y965740I5J6000D01*
G01X2176270Y967740D01*
G02X2180520Y969500I4245J-4240D01*
G01X2182930D01*
X2184650Y968970D01*
X2185400Y968470D01*
G03X2212310Y967080I14603J21532D01*
G01X2212320D01*
G02X2218230Y966950I2840J-5284D01*
G01X2227070Y961660D01*
G02X2229990Y956510I-3080J-5149D01*
G01X2230000Y708950D01*
Y521000D01*
G02X2224000Y515000I-6000J0D01*
G01X2207850D01*
G02X2207440Y515010I-59J6002D01*
G02X2203580Y516790I421J5988D01*
G02X2203390Y516990I4253J4231D01*
G01X2196570Y524590D01*
X2195790Y527000D01*
X2195930Y528280D01*
G03X2164070I-15930J1720D01*
G01X2164210Y527000D01*
X2163430Y524590D01*
X2156610Y516990D01*
G02X2156420Y516790I-4443J4031D01*
G02X2152560Y515010I-4281J4208D01*
G02X2152150Y515000I-351J5992D01*
G01X2140370D01*
G02X2135930Y516970I5J5999D01*
G01X2129100Y524510D01*
X2128300Y526910D01*
X2128430Y528180D01*
G03X2091570I-18430J1820D01*
G01X2091700Y526910D01*
X2090900Y524510D01*
X2084070Y516970D01*
G02X2079630Y515000I-4445J4029D01*
G01X1517620D01*
G02X1512550Y517780I-6J6002D01*
G01X1506290Y527650D01*
X1506100Y530710D01*
X1506760Y532110D01*
G03X1473240I-16760J7890D01*
G01X1473900Y530710D01*
X1473710Y527650D01*
G37*
%LPC*%
G75*
G36*
G01X734610Y594980D02*
X727850Y584660D01*
X727640Y582150D01*
X728150Y580980D01*
G02X631850I-48150J-20980D01*
G01X632360Y582150D01*
X632150Y584660D01*
X625390Y594980D01*
X624980D01*
Y721950D01*
X624900Y722400D01*
G02X644490Y775820I55100J10096D01*
G01X645330Y776520D01*
X646290Y778480D01*
X646520Y788250D01*
X645650Y790250D01*
X644840Y790990D01*
G02X715160I35160J39010D01*
G01X714350Y790250D01*
X713480Y788250D01*
X713710Y778480D01*
X714670Y776520D01*
X715510Y775820D01*
G02X735100Y722400I-35510J-43324D01*
G01X735020Y721950D01*
Y594980D01*
X734610D01*
G37*
G36*
G01X1326020Y653980D02*
X1279980D01*
G02X1273980Y659980I0J6000D01*
G01Y1000020D01*
G02X1279980Y1006020I6000J0D01*
G01X1322510D01*
X1328030Y1000500D01*
X1332920D01*
X1334640Y1001020D01*
X1335390Y1001530D01*
G02X1369600Y962890I14606J-21532D01*
G03X1368120Y958950I4522J-3947D01*
G01Y951050D01*
G03X1369600Y947110I6002J7D01*
G02Y912890I-19600J-17110D01*
G03X1368120Y908950I4522J-3947D01*
G01Y901050D01*
G03X1369600Y897110I6002J7D01*
G02Y862890I-19600J-17110D01*
G03X1368120Y858950I4522J-3947D01*
G01Y851050D01*
G03X1369600Y847110I6002J7D01*
G02Y812890I-19600J-17110D01*
G03X1368120Y808950I4522J-3947D01*
G01Y801050D01*
G03X1369600Y797110I6002J7D01*
G02Y762890I-19600J-17110D01*
G03X1368120Y758950I4522J-3947D01*
G01Y751050D01*
G03X1369600Y747110I6002J7D01*
G02Y712890I-19600J-17110D01*
G03X1368120Y708950I4522J-3947D01*
G01Y701050D01*
G03X1369600Y697110I6002J7D01*
G02X1335390Y658470I-19604J-17108D01*
G01X1334640Y658980D01*
X1332920Y659500D01*
X1329530D01*
X1326020Y655990D01*
Y653980D01*
G37*
G36*
G01X2128980Y894980D02*
Y925020D01*
G02X2134980Y931020I6000J0D01*
G01X2165020D01*
G02X2171020Y925020I0J-6000D01*
G01Y894980D01*
G02X2165020Y888980I-6000J0D01*
G01X2134980D01*
G02X2128980Y894980I0J6000D01*
G37*
G36*
G01X2031480Y977480D02*
Y1002520D01*
G02X2037480Y1008520I6000J0D01*
G01X2062520D01*
G02X2068520Y1002520I0J-6000D01*
G01Y977480D01*
G02X2062520Y971480I-6000J0D01*
G01X2037480D01*
G02X2031480Y977480I0J6000D01*
G37*
G36*
G01X1971480D02*
Y1002520D01*
G02X1977480Y1008520I6000J0D01*
G01X2002520D01*
G02X2008520Y1002520I0J-6000D01*
G01Y977480D01*
G02X2002520Y971480I-6000J0D01*
G01X1977480D01*
G02X1971480Y977480I0J6000D01*
G37*
G36*
G01X1921480D02*
Y1002520D01*
G02X1927480Y1008520I6000J0D01*
G01X1952520D01*
G02X1958520Y1002520I0J-6000D01*
G01Y977480D01*
G02X1952520Y971480I-6000J0D01*
G01X1927480D01*
G02X1921480Y977480I0J6000D01*
G37*
G36*
G01X1861480D02*
Y1002520D01*
G02X1867480Y1008520I6000J0D01*
G01X1892520D01*
G02X1898520Y1002520I0J-6000D01*
G01Y977480D01*
G02X1892520Y971480I-6000J0D01*
G01X1867480D01*
G02X1861480Y977480I0J6000D01*
G37*
G36*
G01X1811480D02*
Y1002520D01*
G02X1817480Y1008520I6000J0D01*
G01X1842520D01*
G02X1848520Y1002520I0J-6000D01*
G01Y977480D01*
G02X1842520Y971480I-6000J0D01*
G01X1817480D01*
G02X1811480Y977480I0J6000D01*
G37*
G36*
G01X1751480D02*
Y1002520D01*
G02X1757480Y1008520I6000J0D01*
G01X1782520D01*
G02X1788520Y1002520I0J-6000D01*
G01Y977480D01*
G02X1782520Y971480I-6000J0D01*
G01X1757480D01*
G02X1751480Y977480I0J6000D01*
G37*
G36*
G01X1701480D02*
Y1002520D01*
G02X1707480Y1008520I6000J0D01*
G01X1732520D01*
G02X1738520Y1002520I0J-6000D01*
G01Y977480D01*
G02X1732520Y971480I-6000J0D01*
G01X1707480D01*
G02X1701480Y977480I0J6000D01*
G37*
G36*
G01X1641480D02*
Y1002520D01*
G02X1647480Y1008520I6000J0D01*
G01X1672520D01*
G02X1678520Y1002520I0J-6000D01*
G01Y977480D01*
G02X1672520Y971480I-6000J0D01*
G01X1647480D01*
G02X1641480Y977480I0J6000D01*
G37*
G36*
G01X1591480D02*
Y1002520D01*
G02X1597480Y1008520I6000J0D01*
G01X1622520D01*
G02X1628520Y1002520I0J-6000D01*
G01Y977480D01*
G02X1622520Y971480I-6000J0D01*
G01X1597480D01*
G02X1591480Y977480I0J6000D01*
G37*
G36*
G01X1513980Y1244980D02*
Y1275020D01*
G02X1519980Y1281020I6000J0D01*
G01X1550020D01*
G02X1556020Y1275020I0J-6000D01*
G01Y1244980D01*
G02X1550020Y1238980I-6000J0D01*
G01X1519980D01*
G02X1513980Y1244980I0J6000D01*
G37*
G54D21*
X2065000Y440000D03*
G54D28*
X1410000Y630000D03*
X1380000Y1150000D03*
X1210000Y990000D03*
X1160000D03*
X1100000D03*
X1050000D03*
X990000D03*
X940000D03*
X880000D03*
X830000D03*
X770000D03*
X720000D03*
G54D22*
X1250000Y455000D03*
G54D26*
X2150000Y827500D03*
Y745000D03*
Y662500D03*
X1452500Y1260000D03*
X1370000D03*
G54D24*
X745000Y460000D03*
G54D27*
X2050000Y940000D03*
Y890000D03*
X1990000Y940000D03*
X1500000Y1090000D03*
Y1005000D03*
X1460000Y930000D03*
Y880000D03*
Y830000D03*
Y780000D03*
Y730000D03*
Y680000D03*
X1430000Y1150000D03*
X1410000Y1040000D03*
Y980000D03*
Y930000D03*
Y880000D03*
Y830000D03*
Y780000D03*
Y730000D03*
Y680000D03*
X1360000Y1090000D03*
Y1040000D03*
Y580000D03*
X1310000D03*
X2110000D03*
X2180000D03*
G54D29*
X1287500Y1260000D03*
G54D23*
X990000Y680000D03*
G54D25*
X1800000D03*
%LPD*%
G75*
G54D10*
X610000Y430000D03*
Y1330000D03*
X990000Y680000D03*
X1800000D03*
X2210000Y430000D03*
Y1330000D03*
G54D20*
G01X697980Y990000D02*
X720000D01*
G01Y967980D02*
Y990000D01*
G01D02*
Y1012020D01*
G01Y990000D02*
X742020D01*
G01X770000Y967980D02*
Y990000D01*
G01D02*
Y1012020D01*
G01X747980Y990000D02*
X770000D01*
G01D02*
X792020D01*
G01X830000Y967980D02*
Y990000D01*
G01D02*
Y1012020D01*
G01X807980Y990000D02*
X830000D01*
G01D02*
X852020D01*
G01X857980D02*
X880000D01*
G01Y967980D02*
Y990000D01*
G01D02*
Y1012020D01*
G01Y990000D02*
X902020D01*
G01X917980D02*
X940000D01*
G01Y967980D02*
Y990000D01*
G01D02*
Y1012020D01*
G01Y990000D02*
X962020D01*
G01X967980D02*
X990000D01*
G01Y967980D02*
Y990000D01*
G01D02*
Y1012020D01*
G01Y990000D02*
X1012020D01*
G01X1027980D02*
X1050000D01*
G01Y967980D02*
Y990000D01*
G01D02*
Y1012020D01*
G01Y990000D02*
X1072020D01*
G01X1100000Y967980D02*
Y990000D01*
G01D02*
Y1012020D01*
G01X1077980Y990000D02*
X1100000D01*
G01D02*
X1122020D01*
G01X1160000Y967980D02*
Y990000D01*
G01D02*
Y1012020D01*
G01X1137980Y990000D02*
X1160000D01*
G01D02*
X1182020D01*
G01X1187980D02*
X1210000D01*
G01Y967980D02*
Y990000D01*
G01D02*
Y1012020D01*
G01Y990000D02*
X1232020D01*
G01X1261980Y1260000D02*
X1287500D01*
G01Y1234480D02*
Y1260000D01*
G01D02*
Y1285520D01*
G01Y1260000D02*
X1313020D01*
G01X1357980Y1150000D02*
X1380000D01*
G01X1387980Y630000D02*
X1410000D01*
G01X1380000Y1127980D02*
Y1150000D01*
G01D02*
Y1172020D01*
G01Y1150000D02*
X1402020D01*
G01X1410000Y607980D02*
Y630000D01*
G01D02*
Y652020D01*
G01Y630000D02*
X1432020D01*
G01X2180000Y530000D02*
Y552020D01*
G01X2157980Y530000D02*
X2180000D01*
G01D02*
X2202020D01*
G54D11*
X680000Y560000D03*
Y830000D03*
X720000Y990000D03*
X770000D03*
X830000D03*
X880000D03*
X940000D03*
X990000D03*
X1050000D03*
X1100000D03*
X1160000D03*
X1210000D03*
X1310000Y580000D03*
X1360000D03*
Y1040000D03*
Y1090000D03*
X1380000Y1150000D03*
X1410000Y630000D03*
Y680000D03*
Y730000D03*
Y780000D03*
Y830000D03*
Y880000D03*
Y930000D03*
Y980000D03*
Y1040000D03*
X1440000Y540000D03*
X1430000Y1150000D03*
X1460000Y680000D03*
Y730000D03*
Y780000D03*
Y830000D03*
Y880000D03*
Y930000D03*
X1490000Y540000D03*
X1500000Y1005000D03*
Y1090000D03*
X1610000Y1340000D03*
X1660000D03*
X1720000D03*
X1770000D03*
X1830000D03*
X1880000D03*
X1940000D03*
X1990000Y940000D03*
Y1340000D03*
X2065000Y440000D03*
X2050000Y890000D03*
Y940000D03*
Y1340000D03*
X2100000D03*
X2110000Y530000D03*
Y580000D03*
X2180000Y530000D03*
Y580000D03*
G54D12*
X680000Y650000D03*
X1535000Y1260000D03*
X2150000Y910000D03*
G54D13*
X680000Y732500D03*
X1287500Y1260000D03*
X1370000D03*
X1452500D03*
X2150000Y662500D03*
Y745000D03*
Y827500D03*
G54D14*
X720000Y1340000D03*
X770000D03*
X830000D03*
X880000D03*
X940000D03*
X990000D03*
X1050000D03*
X1100000D03*
X1160000D03*
X1210000D03*
X1610000Y990000D03*
X1660000D03*
X1720000D03*
X1770000D03*
X1830000D03*
X1880000D03*
X1940000D03*
X1990000D03*
X2050000D03*
X2100000D03*
G54D15*
X745000Y460000D03*
X1350000Y680000D03*
Y730000D03*
Y780000D03*
Y830000D03*
Y880000D03*
Y930000D03*
Y980000D03*
X2200000Y990000D03*
G54D16*
X1250000Y455000D03*
G54D17*
X1300000Y680000D03*
Y730000D03*
Y780000D03*
Y830000D03*
Y880000D03*
Y930000D03*
Y980000D03*
X2150000Y990000D03*
G54D18*
G01X717480Y460000D02*
X745000D01*
G01Y432480D02*
Y460000D01*
G01D02*
Y487520D01*
G01Y460000D02*
X772520D01*
G01X2044980Y440000D02*
X2065000D01*
G01Y419980D02*
Y440000D01*
G01D02*
Y460020D01*
G01Y440000D02*
X2085020D01*
G54D19*
G01X1250000Y455000D02*
X1205000D01*
G01X1250000D02*
Y415000D01*
G01Y455000D02*
X1300000D01*
G01X1250000D02*
Y500000D01*
M02*
