G04 ================== begin FILE IDENTIFICATION RECORD ==================*
G04 Layout Name:  E:/ORCAD_sch/RZSK/HF_filter/v4/pcb/v3.brd*
G04 Film Name:    SILK_TOP*
G04 File Format:  Gerber RS274X*
G04 File Origin:  Cadence Allegro 16.5-S013*
G04 Origin Date:  Sun Mar 11 10:26:31 2012*
G04 *
G04 Layer:  MANUFACTURING/AUTOSILK_TOP*
G04 *
G04 Offset:    (0.000 0.000)*
G04 Mirror:    No*
G04 Mode:      Positive*
G04 Rotation:  0*
G04 FullContactRelief:  No*
G04 UndefLineWidth:     0.250*
G04 ================== end FILE IDENTIFICATION RECORD ====================*
%FSLAX34Y34*MOMM*%
%IR0*IPPOS*OFA0.00000B0.00000*MIA0B0*SFA1.00000B1.00000*%
%ADD10C,.25*%
G75*
%LPD*%
G75*
G54D10*
G01X655000Y535000D02*
X705000D01*
Y585000D01*
X655000D01*
Y535000D01*
G01Y805000D02*
X705000D01*
Y855000D01*
X655000D01*
Y805000D01*
G01X720000Y435000D02*
X770000D01*
Y485000D01*
X720000D01*
Y435000D01*
G01X736000Y680000D02*
G03X990000Y426000I254000J0D01*
G01Y934000D02*
G03X736000Y680000I0J-254000D01*
G01X720000Y1285000D02*
Y1045000D01*
X820000D01*
Y1285000D01*
X720000D01*
G01X830000D02*
Y1045000D01*
X930000D01*
Y1285000D01*
X830000D01*
G01X940000D02*
Y1045000D01*
X1040000D01*
Y1285000D01*
X940000D01*
G01X990000Y426000D02*
G03X1244000Y680000I0J254000D01*
G01D02*
G03X990000Y934000I-254000J0D01*
G01X1050000Y1285000D02*
Y1045000D01*
X1150000D01*
Y1285000D01*
X1050000D01*
G01X1160000D02*
Y1045000D01*
X1260000D01*
Y1285000D01*
X1160000D01*
G01X1212500Y417500D02*
X1287500D01*
Y492500D01*
X1212500D01*
Y417500D01*
G01X1285000Y555000D02*
X1335000D01*
Y605000D01*
X1285000D01*
Y555000D01*
G01X1335000D02*
X1385000D01*
Y605000D01*
X1335000D01*
Y555000D01*
G01Y1015000D02*
X1385000D01*
Y1065000D01*
X1335000D01*
Y1015000D01*
G01Y1065000D02*
X1385000D01*
Y1115000D01*
X1335000D01*
Y1065000D01*
G01X1355000Y1125000D02*
X1405000D01*
Y1175000D01*
X1355000D01*
Y1125000D01*
G01X1385000Y605000D02*
X1435000D01*
Y655000D01*
X1385000D01*
Y605000D01*
G01Y655000D02*
X1435000D01*
Y705000D01*
X1385000D01*
Y655000D01*
G01Y705000D02*
X1435000D01*
Y755000D01*
X1385000D01*
Y705000D01*
G01Y755000D02*
X1435000D01*
Y805000D01*
X1385000D01*
Y755000D01*
G01Y805000D02*
X1435000D01*
Y855000D01*
X1385000D01*
Y805000D01*
G01Y855000D02*
X1435000D01*
Y905000D01*
X1385000D01*
Y855000D01*
G01Y905000D02*
X1435000D01*
Y955000D01*
X1385000D01*
Y905000D01*
G01Y955000D02*
X1435000D01*
Y1005000D01*
X1385000D01*
Y955000D01*
G01Y1015000D02*
X1435000D01*
Y1065000D01*
X1385000D01*
Y1015000D01*
G01X1415000Y515000D02*
X1465000D01*
Y565000D01*
X1415000D01*
Y515000D01*
G01X1405000Y1125000D02*
X1455000D01*
Y1175000D01*
X1405000D01*
Y1125000D01*
G01X1435000Y655000D02*
X1485000D01*
Y705000D01*
X1435000D01*
Y655000D01*
G01Y705000D02*
X1485000D01*
Y755000D01*
X1435000D01*
Y705000D01*
G01Y755000D02*
X1485000D01*
Y805000D01*
X1435000D01*
Y755000D01*
G01Y805000D02*
X1485000D01*
Y855000D01*
X1435000D01*
Y805000D01*
G01Y855000D02*
X1485000D01*
Y905000D01*
X1435000D01*
Y855000D01*
G01Y905000D02*
X1485000D01*
Y955000D01*
X1435000D01*
Y905000D01*
G01X1490000Y965000D02*
X1445000D01*
X1435000Y975000D01*
G01X1465000Y515000D02*
X1515000D01*
Y565000D01*
X1465000D01*
Y515000D01*
G01X1475000Y980000D02*
X1525000D01*
Y1030000D01*
X1475000D01*
Y980000D01*
G01Y1065000D02*
X1525000D01*
Y1115000D01*
X1475000D01*
Y1065000D01*
G01X1546000Y680000D02*
G03X1800000Y426000I254000J0D01*
G01Y934000D02*
G03X1546000Y680000I0J-254000D01*
G01X1660000Y1045000D02*
Y1285000D01*
X1560000D01*
Y1045000D01*
X1660000D01*
G01X1770000D02*
Y1285000D01*
X1670000D01*
Y1045000D01*
X1770000D01*
G01X1880000D02*
Y1285000D01*
X1780000D01*
Y1045000D01*
X1880000D01*
G01X1800000Y426000D02*
G03X2054000Y680000I0J254000D01*
G01D02*
G03X1800000Y934000I-254000J0D01*
G01X1990000Y1045000D02*
Y1285000D01*
X1890000D01*
Y1045000D01*
X1990000D01*
G01X1965000Y915000D02*
X2015000D01*
Y965000D01*
X1965000D01*
Y915000D01*
G01X2025000Y865000D02*
X2075000D01*
Y915000D01*
X2025000D01*
Y865000D01*
G01Y915000D02*
X2075000D01*
Y965000D01*
X2025000D01*
Y915000D01*
G01X2100000Y1045000D02*
Y1285000D01*
X2000000D01*
Y1045000D01*
X2100000D01*
G01X2085000Y555000D02*
X2135000D01*
Y605000D01*
X2085000D01*
Y555000D01*
G01X2155000Y505000D02*
X2205000D01*
Y555000D01*
X2155000D01*
Y505000D01*
G01Y555000D02*
X2205000D01*
Y605000D01*
X2155000D01*
Y555000D01*
G01X622500Y530000D02*
Y510000D01*
G01X616750Y530000D02*
X628250D01*
G01X635250D02*
X641500Y510000D01*
X647750Y530000D01*
G01X660500Y510000D02*
Y530000D01*
X657500Y526000D01*
G01Y510000D02*
X663500D01*
G01X676250Y516670D02*
X682750D01*
G01X698500Y510000D02*
Y530000D01*
X695500Y526000D01*
G01Y510000D02*
X701500D01*
G01X622500Y880000D02*
Y860000D01*
G01X616750Y880000D02*
X628250D01*
G01X635250D02*
X641500Y860000D01*
X647750Y880000D01*
G01X660500Y860000D02*
Y880000D01*
X657500Y876000D01*
G01Y860000D02*
X663500D01*
G01X676250Y866670D02*
X682750D01*
G01X693750Y876670D02*
X695250Y878670D01*
X697000Y879670D01*
X699000Y880000D01*
X701500Y879330D01*
X703250Y877670D01*
X703750Y875670D01*
X703500Y873670D01*
X702500Y872000D01*
X697500Y868670D01*
X695250Y866330D01*
X693750Y863000D01*
X693250Y860000D01*
X703750D01*
G01X707500Y510000D02*
Y490000D01*
G01X701750Y510000D02*
X713250D01*
G01X720250D02*
X726500Y490000D01*
X732750Y510000D01*
G01X745500Y490000D02*
Y510000D01*
X742500Y506000D01*
G01Y490000D02*
X748500D01*
G01X761250Y496670D02*
X767750D01*
G01X778000Y493000D02*
X779500Y491330D01*
X781250Y490330D01*
X783500Y490000D01*
X785750Y490670D01*
X787500Y492000D01*
X788750Y494330D01*
X789000Y497000D01*
X788500Y499670D01*
X787250Y501330D01*
X785500Y502670D01*
X783750Y503000D01*
X782000Y502670D01*
X779750Y501330D01*
X780500Y510000D01*
X787250D01*
G01X722500Y1290000D02*
Y1310000D01*
X728750D01*
X730750Y1309000D01*
X732000Y1307670D01*
X732500Y1305000D01*
X732000Y1302330D01*
X730500Y1300670D01*
X728750Y1299670D01*
X722500D01*
G01X728750D02*
X732500Y1290000D01*
G01X741750Y1298330D02*
X743500Y1300670D01*
X745000Y1302000D01*
X747000Y1302670D01*
X748750Y1302000D01*
X750000Y1300670D01*
X751000Y1298670D01*
X751250Y1296330D01*
X751000Y1294330D01*
X750000Y1292330D01*
X748500Y1290670D01*
X746750Y1290000D01*
X744750Y1290670D01*
X743000Y1292670D01*
X742000Y1295670D01*
X741750Y1299000D01*
X742250Y1303330D01*
X743000Y1305670D01*
X744250Y1308000D01*
X746000Y1309670D01*
X747750Y1310000D01*
X749500Y1309330D01*
X750750Y1307670D01*
G01X832500Y1290000D02*
Y1310000D01*
X838750D01*
X840750Y1309000D01*
X842000Y1307670D01*
X842500Y1305000D01*
X842000Y1302330D01*
X840500Y1300670D01*
X838750Y1299670D01*
X832500D01*
G01X838750D02*
X842500Y1290000D01*
G01X856000D02*
X856500Y1294330D01*
X857250Y1298000D01*
X858250Y1301330D01*
X859500Y1305000D01*
X861500Y1310000D01*
X851500D01*
G01X942500Y1290000D02*
Y1310000D01*
X948750D01*
X950750Y1309000D01*
X952000Y1307670D01*
X952500Y1305000D01*
X952000Y1302330D01*
X950500Y1300670D01*
X948750Y1299670D01*
X942500D01*
G01X948750D02*
X952500Y1290000D01*
G01X966500D02*
X968250Y1290330D01*
X970250Y1291330D01*
X971500Y1293000D01*
X972000Y1295330D01*
X971500Y1297670D01*
X970000Y1299670D01*
X967750Y1300670D01*
X965250D01*
X963750Y1301330D01*
X962500Y1303000D01*
X962000Y1305330D01*
X962750Y1307670D01*
X964500Y1309330D01*
X966500Y1310000D01*
X968500Y1309330D01*
X970250Y1307670D01*
X971000Y1305330D01*
X970500Y1303000D01*
X969250Y1301330D01*
X967750Y1300670D01*
X965250D01*
X963000Y1299670D01*
X961500Y1297670D01*
X961000Y1295330D01*
X961500Y1293000D01*
X962750Y1291330D01*
X964750Y1290330D01*
X966500Y1290000D01*
G01X1052500D02*
Y1310000D01*
X1058750D01*
X1060750Y1309000D01*
X1062000Y1307670D01*
X1062500Y1305000D01*
X1062000Y1302330D01*
X1060500Y1300670D01*
X1058750Y1299670D01*
X1052500D01*
G01X1058750D02*
X1062500Y1290000D01*
G01X1072250Y1292330D02*
X1074000Y1290670D01*
X1076000Y1290000D01*
X1078000Y1290670D01*
X1079750Y1292670D01*
X1081000Y1295670D01*
X1081500Y1298670D01*
Y1302330D01*
X1081000Y1305330D01*
X1079750Y1308000D01*
X1078250Y1309330D01*
X1076500Y1310000D01*
X1074500Y1309330D01*
X1073000Y1308000D01*
X1072000Y1306000D01*
X1071500Y1303330D01*
X1072000Y1301000D01*
X1073250Y1298670D01*
X1074750Y1297330D01*
X1076500Y1297000D01*
X1078500Y1297670D01*
X1080000Y1299330D01*
X1081500Y1302330D01*
G01X1162500Y1290000D02*
Y1310000D01*
X1168750D01*
X1170750Y1309000D01*
X1172000Y1307670D01*
X1172500Y1305000D01*
X1172000Y1302330D01*
X1170500Y1300670D01*
X1168750Y1299670D01*
X1162500D01*
G01X1168750D02*
X1172500Y1290000D01*
G01X1186500D02*
Y1310000D01*
X1183500Y1306000D01*
G01Y1290000D02*
X1189500D01*
G01X1205500Y1310000D02*
X1203500Y1309330D01*
X1202000Y1307670D01*
X1201000Y1305670D01*
X1200250Y1303000D01*
X1200000Y1300000D01*
X1200250Y1297000D01*
X1201000Y1294330D01*
X1202000Y1292330D01*
X1203500Y1290670D01*
X1205500Y1290000D01*
X1207500Y1290670D01*
X1209000Y1292330D01*
X1210000Y1294330D01*
X1210750Y1297000D01*
X1211000Y1300000D01*
X1210750Y1303000D01*
X1210000Y1305670D01*
X1209000Y1307670D01*
X1207500Y1309330D01*
X1205500Y1310000D01*
G01X1234000Y505000D02*
X1239000D01*
Y499000D01*
X1237500Y497000D01*
X1235750Y495670D01*
X1233250Y495000D01*
X1230750Y495670D01*
X1229000Y497000D01*
X1227500Y499000D01*
X1226500Y501330D01*
X1226000Y504000D01*
Y506330D01*
X1226500Y508330D01*
X1227500Y510670D01*
X1229000Y512670D01*
X1230500Y514000D01*
X1232500Y515000D01*
X1234250D01*
X1236250Y514330D01*
X1237750Y513000D01*
G01X1245750Y495000D02*
Y515000D01*
X1257250Y495000D01*
Y515000D01*
G01X1265000Y495000D02*
Y515000D01*
X1270000D01*
X1272000Y514000D01*
X1273500Y512670D01*
X1274750Y510670D01*
X1275750Y508330D01*
X1276000Y505000D01*
X1275750Y501670D01*
X1274750Y499330D01*
X1273500Y497330D01*
X1272000Y496000D01*
X1270000Y495000D01*
X1265000D01*
G01X1267500Y630000D02*
Y610000D01*
G01X1261750Y630000D02*
X1273250D01*
G01X1280250D02*
X1286500Y610000D01*
X1292750Y630000D01*
G01X1305500Y610000D02*
Y630000D01*
X1302500Y626000D01*
G01Y610000D02*
X1308500D01*
G01X1321250Y616670D02*
X1327750D01*
G01X1338000Y614000D02*
X1339500Y611670D01*
X1341500Y610330D01*
X1343750Y610000D01*
X1345750Y610330D01*
X1347750Y612000D01*
X1349000Y614000D01*
X1349250Y616000D01*
X1348750Y618330D01*
X1347000Y620000D01*
X1345250Y620670D01*
X1343000D01*
G01X1345250D02*
X1346750Y621670D01*
X1348000Y623330D01*
X1348500Y625330D01*
X1348000Y627330D01*
X1346750Y629000D01*
X1344500Y630000D01*
X1342250Y629670D01*
X1340000Y628330D01*
G01X1262250Y1032670D02*
X1264250Y1031000D01*
X1266500Y1030000D01*
X1268500D01*
X1270500Y1031000D01*
X1272000Y1032670D01*
X1272750Y1035000D01*
X1272250Y1037330D01*
X1271000Y1039330D01*
X1268750Y1040670D01*
X1265750Y1041330D01*
X1264000Y1042670D01*
X1263250Y1045000D01*
X1263750Y1047330D01*
X1265000Y1049000D01*
X1266750Y1050000D01*
X1268500D01*
X1270250Y1049330D01*
X1271750Y1047670D01*
G01X1286500Y1030000D02*
X1288250Y1030330D01*
X1290250Y1031330D01*
X1291500Y1033000D01*
X1292000Y1035330D01*
X1291500Y1037670D01*
X1290000Y1039670D01*
X1287750Y1040670D01*
X1285250D01*
X1283750Y1041330D01*
X1282500Y1043000D01*
X1282000Y1045330D01*
X1282750Y1047670D01*
X1284500Y1049330D01*
X1286500Y1050000D01*
X1288500Y1049330D01*
X1290250Y1047670D01*
X1291000Y1045330D01*
X1290500Y1043000D01*
X1289250Y1041330D01*
X1287750Y1040670D01*
X1285250D01*
X1283000Y1039670D01*
X1281500Y1037670D01*
X1281000Y1035330D01*
X1281500Y1033000D01*
X1282750Y1031330D01*
X1284750Y1030330D01*
X1286500Y1030000D01*
G01X1305500Y1029330D02*
X1305000Y1029670D01*
Y1030330D01*
X1305500Y1030670D01*
X1306000Y1030330D01*
Y1029670D01*
X1305500Y1029330D01*
G01X1319750Y1046670D02*
X1321250Y1048670D01*
X1323000Y1049670D01*
X1325000Y1050000D01*
X1327500Y1049330D01*
X1329250Y1047670D01*
X1329750Y1045670D01*
X1329500Y1043670D01*
X1328500Y1042000D01*
X1323500Y1038670D01*
X1321250Y1036330D01*
X1319750Y1033000D01*
X1319250Y1030000D01*
X1329750D01*
G01X1267250Y1087670D02*
X1269250Y1086000D01*
X1271500Y1085000D01*
X1273500D01*
X1275500Y1086000D01*
X1277000Y1087670D01*
X1277750Y1090000D01*
X1277250Y1092330D01*
X1276000Y1094330D01*
X1273750Y1095670D01*
X1270750Y1096330D01*
X1269000Y1097670D01*
X1268250Y1100000D01*
X1268750Y1102330D01*
X1270000Y1104000D01*
X1271750Y1105000D01*
X1273500D01*
X1275250Y1104330D01*
X1276750Y1102670D01*
G01X1291500Y1085000D02*
X1293250Y1085330D01*
X1295250Y1086330D01*
X1296500Y1088000D01*
X1297000Y1090330D01*
X1296500Y1092670D01*
X1295000Y1094670D01*
X1292750Y1095670D01*
X1290250D01*
X1288750Y1096330D01*
X1287500Y1098000D01*
X1287000Y1100330D01*
X1287750Y1102670D01*
X1289500Y1104330D01*
X1291500Y1105000D01*
X1293500Y1104330D01*
X1295250Y1102670D01*
X1296000Y1100330D01*
X1295500Y1098000D01*
X1294250Y1096330D01*
X1292750Y1095670D01*
X1290250D01*
X1288000Y1094670D01*
X1286500Y1092670D01*
X1286000Y1090330D01*
X1286500Y1088000D01*
X1287750Y1086330D01*
X1289750Y1085330D01*
X1291500Y1085000D01*
G01X1310500Y1084330D02*
X1310000Y1084670D01*
Y1085330D01*
X1310500Y1085670D01*
X1311000Y1085330D01*
Y1084670D01*
X1310500Y1084330D01*
G01X1329500Y1085000D02*
Y1105000D01*
X1326500Y1101000D01*
G01Y1085000D02*
X1332500D01*
G01X1312500Y1200000D02*
Y1180000D01*
G01X1306750Y1200000D02*
X1318250D01*
G01X1325250D02*
X1331500Y1180000D01*
X1337750Y1200000D01*
G01X1345750Y1196670D02*
X1347250Y1198670D01*
X1349000Y1199670D01*
X1351000Y1200000D01*
X1353500Y1199330D01*
X1355250Y1197670D01*
X1355750Y1195670D01*
X1355500Y1193670D01*
X1354500Y1192000D01*
X1349500Y1188670D01*
X1347250Y1186330D01*
X1345750Y1183000D01*
X1345250Y1180000D01*
X1355750D01*
G01X1366250Y1186670D02*
X1372750D01*
G01X1391500Y1180000D02*
Y1200000D01*
X1382250Y1185670D01*
X1394750D01*
G01X1327500Y550000D02*
Y530000D01*
G01X1321750Y550000D02*
X1333250D01*
G01X1340250D02*
X1346500Y530000D01*
X1352750Y550000D01*
G01X1365500Y530000D02*
Y550000D01*
X1362500Y546000D01*
G01Y530000D02*
X1368500D01*
G01X1381250Y536670D02*
X1387750D01*
G01X1406500Y530000D02*
Y550000D01*
X1397250Y535670D01*
X1409750D01*
G01X1402500Y590000D02*
Y570000D01*
G01X1396750Y590000D02*
X1408250D01*
G01X1415250D02*
X1421500Y570000D01*
X1427750Y590000D01*
G01X1435750Y586670D02*
X1437250Y588670D01*
X1439000Y589670D01*
X1441000Y590000D01*
X1443500Y589330D01*
X1445250Y587670D01*
X1445750Y585670D01*
X1445500Y583670D01*
X1444500Y582000D01*
X1439500Y578670D01*
X1437250Y576330D01*
X1435750Y573000D01*
X1435250Y570000D01*
X1445750D01*
G01X1456250Y576670D02*
X1462750D01*
G01X1478500Y570000D02*
Y590000D01*
X1475500Y586000D01*
G01Y570000D02*
X1481500D01*
G01X1392250Y1072670D02*
X1394250Y1071000D01*
X1396500Y1070000D01*
X1398500D01*
X1400500Y1071000D01*
X1402000Y1072670D01*
X1402750Y1075000D01*
X1402250Y1077330D01*
X1401000Y1079330D01*
X1398750Y1080670D01*
X1395750Y1081330D01*
X1394000Y1082670D01*
X1393250Y1085000D01*
X1393750Y1087330D01*
X1395000Y1089000D01*
X1396750Y1090000D01*
X1398500D01*
X1400250Y1089330D01*
X1401750Y1087670D01*
G01X1416500Y1070000D02*
X1418250Y1070330D01*
X1420250Y1071330D01*
X1421500Y1073000D01*
X1422000Y1075330D01*
X1421500Y1077670D01*
X1420000Y1079670D01*
X1417750Y1080670D01*
X1415250D01*
X1413750Y1081330D01*
X1412500Y1083000D01*
X1412000Y1085330D01*
X1412750Y1087670D01*
X1414500Y1089330D01*
X1416500Y1090000D01*
X1418500Y1089330D01*
X1420250Y1087670D01*
X1421000Y1085330D01*
X1420500Y1083000D01*
X1419250Y1081330D01*
X1417750Y1080670D01*
X1415250D01*
X1413000Y1079670D01*
X1411500Y1077670D01*
X1411000Y1075330D01*
X1411500Y1073000D01*
X1412750Y1071330D01*
X1414750Y1070330D01*
X1416500Y1070000D01*
G01X1435500Y1069330D02*
X1435000Y1069670D01*
Y1070330D01*
X1435500Y1070670D01*
X1436000Y1070330D01*
Y1069670D01*
X1435500Y1069330D01*
G01X1449000Y1074000D02*
X1450500Y1071670D01*
X1452500Y1070330D01*
X1454750Y1070000D01*
X1456750Y1070330D01*
X1458750Y1072000D01*
X1460000Y1074000D01*
X1460250Y1076000D01*
X1459750Y1078330D01*
X1458000Y1080000D01*
X1456250Y1080670D01*
X1454000D01*
G01X1456250D02*
X1457750Y1081670D01*
X1459000Y1083330D01*
X1459500Y1085330D01*
X1459000Y1087330D01*
X1457750Y1089000D01*
X1455500Y1090000D01*
X1453250Y1089670D01*
X1451000Y1088330D01*
G01X1422500Y1200000D02*
Y1180000D01*
G01X1416750Y1200000D02*
X1428250D01*
G01X1435250D02*
X1441500Y1180000D01*
X1447750Y1200000D01*
G01X1455750Y1196670D02*
X1457250Y1198670D01*
X1459000Y1199670D01*
X1461000Y1200000D01*
X1463500Y1199330D01*
X1465250Y1197670D01*
X1465750Y1195670D01*
X1465500Y1193670D01*
X1464500Y1192000D01*
X1459500Y1188670D01*
X1457250Y1186330D01*
X1455750Y1183000D01*
X1455250Y1180000D01*
X1465750D01*
G01X1476250Y1186670D02*
X1482750D01*
G01X1493750Y1196670D02*
X1495250Y1198670D01*
X1497000Y1199670D01*
X1499000Y1200000D01*
X1501500Y1199330D01*
X1503250Y1197670D01*
X1503750Y1195670D01*
X1503500Y1193670D01*
X1502500Y1192000D01*
X1497500Y1188670D01*
X1495250Y1186330D01*
X1493750Y1183000D01*
X1493250Y1180000D01*
X1503750D01*
G01X1452500Y505000D02*
Y485000D01*
G01X1446750Y505000D02*
X1458250D01*
G01X1465250D02*
X1471500Y485000D01*
X1477750Y505000D01*
G01X1485750Y501670D02*
X1487250Y503670D01*
X1489000Y504670D01*
X1491000Y505000D01*
X1493500Y504330D01*
X1495250Y502670D01*
X1495750Y500670D01*
X1495500Y498670D01*
X1494500Y497000D01*
X1489500Y493670D01*
X1487250Y491330D01*
X1485750Y488000D01*
X1485250Y485000D01*
X1495750D01*
G01X1506250Y491670D02*
X1512750D01*
G01X1523000Y489000D02*
X1524500Y486670D01*
X1526500Y485330D01*
X1528750Y485000D01*
X1530750Y485330D01*
X1532750Y487000D01*
X1534000Y489000D01*
X1534250Y491000D01*
X1533750Y493330D01*
X1532000Y495000D01*
X1530250Y495670D01*
X1528000D01*
G01X1530250D02*
X1531750Y496670D01*
X1533000Y498330D01*
X1533500Y500330D01*
X1533000Y502330D01*
X1531750Y504000D01*
X1529500Y505000D01*
X1527250Y504670D01*
X1525000Y503330D01*
G01X1447500Y640000D02*
Y620000D01*
G01X1441750Y640000D02*
X1453250D01*
G01X1460250D02*
X1466500Y620000D01*
X1472750Y640000D01*
G01X1480000Y624000D02*
X1481500Y621670D01*
X1483500Y620330D01*
X1485750Y620000D01*
X1487750Y620330D01*
X1489750Y622000D01*
X1491000Y624000D01*
X1491250Y626000D01*
X1490750Y628330D01*
X1489000Y630000D01*
X1487250Y630670D01*
X1485000D01*
G01X1487250D02*
X1488750Y631670D01*
X1490000Y633330D01*
X1490500Y635330D01*
X1490000Y637330D01*
X1488750Y639000D01*
X1486500Y640000D01*
X1484250Y639670D01*
X1482000Y638330D01*
G01X1501250Y626670D02*
X1507750D01*
G01X1523500Y620000D02*
Y640000D01*
X1520500Y636000D01*
G01Y620000D02*
X1526500D01*
G01X1477250Y1037670D02*
X1479250Y1036000D01*
X1481500Y1035000D01*
X1483500D01*
X1485500Y1036000D01*
X1487000Y1037670D01*
X1487750Y1040000D01*
X1487250Y1042330D01*
X1486000Y1044330D01*
X1483750Y1045670D01*
X1480750Y1046330D01*
X1479000Y1047670D01*
X1478250Y1050000D01*
X1478750Y1052330D01*
X1480000Y1054000D01*
X1481750Y1055000D01*
X1483500D01*
X1485250Y1054330D01*
X1486750Y1052670D01*
G01X1497250Y1037330D02*
X1499000Y1035670D01*
X1501000Y1035000D01*
X1503000Y1035670D01*
X1504750Y1037670D01*
X1506000Y1040670D01*
X1506500Y1043670D01*
Y1047330D01*
X1506000Y1050330D01*
X1504750Y1053000D01*
X1503250Y1054330D01*
X1501500Y1055000D01*
X1499500Y1054330D01*
X1498000Y1053000D01*
X1497000Y1051000D01*
X1496500Y1048330D01*
X1497000Y1046000D01*
X1498250Y1043670D01*
X1499750Y1042330D01*
X1501500Y1042000D01*
X1503500Y1042670D01*
X1505000Y1044330D01*
X1506500Y1047330D01*
G01X1517250Y1041670D02*
X1523750D01*
G01X1534750Y1051670D02*
X1536250Y1053670D01*
X1538000Y1054670D01*
X1540000Y1055000D01*
X1542500Y1054330D01*
X1544250Y1052670D01*
X1544750Y1050670D01*
X1544500Y1048670D01*
X1543500Y1047000D01*
X1538500Y1043670D01*
X1536250Y1041330D01*
X1534750Y1038000D01*
X1534250Y1035000D01*
X1544750D01*
G01X1482250Y1122670D02*
X1484250Y1121000D01*
X1486500Y1120000D01*
X1488500D01*
X1490500Y1121000D01*
X1492000Y1122670D01*
X1492750Y1125000D01*
X1492250Y1127330D01*
X1491000Y1129330D01*
X1488750Y1130670D01*
X1485750Y1131330D01*
X1484000Y1132670D01*
X1483250Y1135000D01*
X1483750Y1137330D01*
X1485000Y1139000D01*
X1486750Y1140000D01*
X1488500D01*
X1490250Y1139330D01*
X1491750Y1137670D01*
G01X1502250Y1122330D02*
X1504000Y1120670D01*
X1506000Y1120000D01*
X1508000Y1120670D01*
X1509750Y1122670D01*
X1511000Y1125670D01*
X1511500Y1128670D01*
Y1132330D01*
X1511000Y1135330D01*
X1509750Y1138000D01*
X1508250Y1139330D01*
X1506500Y1140000D01*
X1504500Y1139330D01*
X1503000Y1138000D01*
X1502000Y1136000D01*
X1501500Y1133330D01*
X1502000Y1131000D01*
X1503250Y1128670D01*
X1504750Y1127330D01*
X1506500Y1127000D01*
X1508500Y1127670D01*
X1510000Y1129330D01*
X1511500Y1132330D01*
G01X1522250Y1126670D02*
X1528750D01*
G01X1544500Y1120000D02*
Y1140000D01*
X1541500Y1136000D01*
G01Y1120000D02*
X1547500D01*
G01X1497500Y675000D02*
Y655000D01*
G01X1491750Y675000D02*
X1503250D01*
G01X1510250D02*
X1516500Y655000D01*
X1522750Y675000D01*
G01X1530000Y659000D02*
X1531500Y656670D01*
X1533500Y655330D01*
X1535750Y655000D01*
X1537750Y655330D01*
X1539750Y657000D01*
X1541000Y659000D01*
X1541250Y661000D01*
X1540750Y663330D01*
X1539000Y665000D01*
X1537250Y665670D01*
X1535000D01*
G01X1537250D02*
X1538750Y666670D01*
X1540000Y668330D01*
X1540500Y670330D01*
X1540000Y672330D01*
X1538750Y674000D01*
X1536500Y675000D01*
X1534250Y674670D01*
X1532000Y673330D01*
G01X1551250Y661670D02*
X1557750D01*
G01X1568750Y671670D02*
X1570250Y673670D01*
X1572000Y674670D01*
X1574000Y675000D01*
X1576500Y674330D01*
X1578250Y672670D01*
X1578750Y670670D01*
X1578500Y668670D01*
X1577500Y667000D01*
X1572500Y663670D01*
X1570250Y661330D01*
X1568750Y658000D01*
X1568250Y655000D01*
X1578750D01*
G01X1497500Y700000D02*
Y680000D01*
G01X1491750Y700000D02*
X1503250D01*
G01X1510250D02*
X1516500Y680000D01*
X1522750Y700000D01*
G01X1530000Y684000D02*
X1531500Y681670D01*
X1533500Y680330D01*
X1535750Y680000D01*
X1537750Y680330D01*
X1539750Y682000D01*
X1541000Y684000D01*
X1541250Y686000D01*
X1540750Y688330D01*
X1539000Y690000D01*
X1537250Y690670D01*
X1535000D01*
G01X1537250D02*
X1538750Y691670D01*
X1540000Y693330D01*
X1540500Y695330D01*
X1540000Y697330D01*
X1538750Y699000D01*
X1536500Y700000D01*
X1534250Y699670D01*
X1532000Y698330D01*
G01X1551250Y686670D02*
X1557750D01*
G01X1568000Y684000D02*
X1569500Y681670D01*
X1571500Y680330D01*
X1573750Y680000D01*
X1575750Y680330D01*
X1577750Y682000D01*
X1579000Y684000D01*
X1579250Y686000D01*
X1578750Y688330D01*
X1577000Y690000D01*
X1575250Y690670D01*
X1573000D01*
G01X1575250D02*
X1576750Y691670D01*
X1578000Y693330D01*
X1578500Y695330D01*
X1578000Y697330D01*
X1576750Y699000D01*
X1574500Y700000D01*
X1572250Y699670D01*
X1570000Y698330D01*
G01X1497500Y725000D02*
Y705000D01*
G01X1491750Y725000D02*
X1503250D01*
G01X1510250D02*
X1516500Y705000D01*
X1522750Y725000D01*
G01X1530000Y709000D02*
X1531500Y706670D01*
X1533500Y705330D01*
X1535750Y705000D01*
X1537750Y705330D01*
X1539750Y707000D01*
X1541000Y709000D01*
X1541250Y711000D01*
X1540750Y713330D01*
X1539000Y715000D01*
X1537250Y715670D01*
X1535000D01*
G01X1537250D02*
X1538750Y716670D01*
X1540000Y718330D01*
X1540500Y720330D01*
X1540000Y722330D01*
X1538750Y724000D01*
X1536500Y725000D01*
X1534250Y724670D01*
X1532000Y723330D01*
G01X1551250Y711670D02*
X1557750D01*
G01X1576500Y705000D02*
Y725000D01*
X1567250Y710670D01*
X1579750D01*
G01X1497500Y750000D02*
Y730000D01*
G01X1491750Y750000D02*
X1503250D01*
G01X1510250D02*
X1516500Y730000D01*
X1522750Y750000D01*
G01X1530000Y734000D02*
X1531500Y731670D01*
X1533500Y730330D01*
X1535750Y730000D01*
X1537750Y730330D01*
X1539750Y732000D01*
X1541000Y734000D01*
X1541250Y736000D01*
X1540750Y738330D01*
X1539000Y740000D01*
X1537250Y740670D01*
X1535000D01*
G01X1537250D02*
X1538750Y741670D01*
X1540000Y743330D01*
X1540500Y745330D01*
X1540000Y747330D01*
X1538750Y749000D01*
X1536500Y750000D01*
X1534250Y749670D01*
X1532000Y748330D01*
G01X1551250Y736670D02*
X1557750D01*
G01X1568000Y733000D02*
X1569500Y731330D01*
X1571250Y730330D01*
X1573500Y730000D01*
X1575750Y730670D01*
X1577500Y732000D01*
X1578750Y734330D01*
X1579000Y737000D01*
X1578500Y739670D01*
X1577250Y741330D01*
X1575500Y742670D01*
X1573750Y743000D01*
X1572000Y742670D01*
X1569750Y741330D01*
X1570500Y750000D01*
X1577250D01*
G01X1497500Y775000D02*
Y755000D01*
G01X1491750Y775000D02*
X1503250D01*
G01X1510250D02*
X1516500Y755000D01*
X1522750Y775000D01*
G01X1530000Y759000D02*
X1531500Y756670D01*
X1533500Y755330D01*
X1535750Y755000D01*
X1537750Y755330D01*
X1539750Y757000D01*
X1541000Y759000D01*
X1541250Y761000D01*
X1540750Y763330D01*
X1539000Y765000D01*
X1537250Y765670D01*
X1535000D01*
G01X1537250D02*
X1538750Y766670D01*
X1540000Y768330D01*
X1540500Y770330D01*
X1540000Y772330D01*
X1538750Y774000D01*
X1536500Y775000D01*
X1534250Y774670D01*
X1532000Y773330D01*
G01X1551250Y761670D02*
X1557750D01*
G01X1568750Y763330D02*
X1570500Y765670D01*
X1572000Y767000D01*
X1574000Y767670D01*
X1575750Y767000D01*
X1577000Y765670D01*
X1578000Y763670D01*
X1578250Y761330D01*
X1578000Y759330D01*
X1577000Y757330D01*
X1575500Y755670D01*
X1573750Y755000D01*
X1571750Y755670D01*
X1570000Y757670D01*
X1569000Y760670D01*
X1568750Y764000D01*
X1569250Y768330D01*
X1570000Y770670D01*
X1571250Y773000D01*
X1573000Y774670D01*
X1574750Y775000D01*
X1576500Y774330D01*
X1577750Y772670D01*
G01X1497500Y800000D02*
Y780000D01*
G01X1491750Y800000D02*
X1503250D01*
G01X1510250D02*
X1516500Y780000D01*
X1522750Y800000D01*
G01X1530000Y784000D02*
X1531500Y781670D01*
X1533500Y780330D01*
X1535750Y780000D01*
X1537750Y780330D01*
X1539750Y782000D01*
X1541000Y784000D01*
X1541250Y786000D01*
X1540750Y788330D01*
X1539000Y790000D01*
X1537250Y790670D01*
X1535000D01*
G01X1537250D02*
X1538750Y791670D01*
X1540000Y793330D01*
X1540500Y795330D01*
X1540000Y797330D01*
X1538750Y799000D01*
X1536500Y800000D01*
X1534250Y799670D01*
X1532000Y798330D01*
G01X1551250Y786670D02*
X1557750D01*
G01X1573000Y780000D02*
X1573500Y784330D01*
X1574250Y788000D01*
X1575250Y791330D01*
X1576500Y795000D01*
X1578500Y800000D01*
X1568500D01*
G01X1497500Y825000D02*
Y805000D01*
G01X1491750Y825000D02*
X1503250D01*
G01X1510250D02*
X1516500Y805000D01*
X1522750Y825000D01*
G01X1530000Y809000D02*
X1531500Y806670D01*
X1533500Y805330D01*
X1535750Y805000D01*
X1537750Y805330D01*
X1539750Y807000D01*
X1541000Y809000D01*
X1541250Y811000D01*
X1540750Y813330D01*
X1539000Y815000D01*
X1537250Y815670D01*
X1535000D01*
G01X1537250D02*
X1538750Y816670D01*
X1540000Y818330D01*
X1540500Y820330D01*
X1540000Y822330D01*
X1538750Y824000D01*
X1536500Y825000D01*
X1534250Y824670D01*
X1532000Y823330D01*
G01X1551250Y811670D02*
X1557750D01*
G01X1573500Y805000D02*
X1575250Y805330D01*
X1577250Y806330D01*
X1578500Y808000D01*
X1579000Y810330D01*
X1578500Y812670D01*
X1577000Y814670D01*
X1574750Y815670D01*
X1572250D01*
X1570750Y816330D01*
X1569500Y818000D01*
X1569000Y820330D01*
X1569750Y822670D01*
X1571500Y824330D01*
X1573500Y825000D01*
X1575500Y824330D01*
X1577250Y822670D01*
X1578000Y820330D01*
X1577500Y818000D01*
X1576250Y816330D01*
X1574750Y815670D01*
X1572250D01*
X1570000Y814670D01*
X1568500Y812670D01*
X1568000Y810330D01*
X1568500Y808000D01*
X1569750Y806330D01*
X1571750Y805330D01*
X1573500Y805000D01*
G01X1497500Y850000D02*
Y830000D01*
G01X1491750Y850000D02*
X1503250D01*
G01X1510250D02*
X1516500Y830000D01*
X1522750Y850000D01*
G01X1530000Y834000D02*
X1531500Y831670D01*
X1533500Y830330D01*
X1535750Y830000D01*
X1537750Y830330D01*
X1539750Y832000D01*
X1541000Y834000D01*
X1541250Y836000D01*
X1540750Y838330D01*
X1539000Y840000D01*
X1537250Y840670D01*
X1535000D01*
G01X1537250D02*
X1538750Y841670D01*
X1540000Y843330D01*
X1540500Y845330D01*
X1540000Y847330D01*
X1538750Y849000D01*
X1536500Y850000D01*
X1534250Y849670D01*
X1532000Y848330D01*
G01X1551250Y836670D02*
X1557750D01*
G01X1569250Y832330D02*
X1571000Y830670D01*
X1573000Y830000D01*
X1575000Y830670D01*
X1576750Y832670D01*
X1578000Y835670D01*
X1578500Y838670D01*
Y842330D01*
X1578000Y845330D01*
X1576750Y848000D01*
X1575250Y849330D01*
X1573500Y850000D01*
X1571500Y849330D01*
X1570000Y848000D01*
X1569000Y846000D01*
X1568500Y843330D01*
X1569000Y841000D01*
X1570250Y838670D01*
X1571750Y837330D01*
X1573500Y837000D01*
X1575500Y837670D01*
X1577000Y839330D01*
X1578500Y842330D01*
G01X1497500Y875000D02*
Y855000D01*
G01X1491750Y875000D02*
X1503250D01*
G01X1510250D02*
X1516500Y855000D01*
X1522750Y875000D01*
G01X1530000Y859000D02*
X1531500Y856670D01*
X1533500Y855330D01*
X1535750Y855000D01*
X1537750Y855330D01*
X1539750Y857000D01*
X1541000Y859000D01*
X1541250Y861000D01*
X1540750Y863330D01*
X1539000Y865000D01*
X1537250Y865670D01*
X1535000D01*
G01X1537250D02*
X1538750Y866670D01*
X1540000Y868330D01*
X1540500Y870330D01*
X1540000Y872330D01*
X1538750Y874000D01*
X1536500Y875000D01*
X1534250Y874670D01*
X1532000Y873330D01*
G01X1551250Y861670D02*
X1557750D01*
G01X1573500Y855000D02*
Y875000D01*
X1570500Y871000D01*
G01Y855000D02*
X1576500D01*
G01X1592500Y875000D02*
X1590500Y874330D01*
X1589000Y872670D01*
X1588000Y870670D01*
X1587250Y868000D01*
X1587000Y865000D01*
X1587250Y862000D01*
X1588000Y859330D01*
X1589000Y857330D01*
X1590500Y855670D01*
X1592500Y855000D01*
X1594500Y855670D01*
X1596000Y857330D01*
X1597000Y859330D01*
X1597750Y862000D01*
X1598000Y865000D01*
X1597750Y868000D01*
X1597000Y870670D01*
X1596000Y872670D01*
X1594500Y874330D01*
X1592500Y875000D01*
G01X1497500Y900000D02*
Y880000D01*
G01X1491750Y900000D02*
X1503250D01*
G01X1510250D02*
X1516500Y880000D01*
X1522750Y900000D01*
G01X1530000Y884000D02*
X1531500Y881670D01*
X1533500Y880330D01*
X1535750Y880000D01*
X1537750Y880330D01*
X1539750Y882000D01*
X1541000Y884000D01*
X1541250Y886000D01*
X1540750Y888330D01*
X1539000Y890000D01*
X1537250Y890670D01*
X1535000D01*
G01X1537250D02*
X1538750Y891670D01*
X1540000Y893330D01*
X1540500Y895330D01*
X1540000Y897330D01*
X1538750Y899000D01*
X1536500Y900000D01*
X1534250Y899670D01*
X1532000Y898330D01*
G01X1551250Y886670D02*
X1557750D01*
G01X1573500Y880000D02*
Y900000D01*
X1570500Y896000D01*
G01Y880000D02*
X1576500D01*
G01X1592500D02*
Y900000D01*
X1589500Y896000D01*
G01Y880000D02*
X1595500D01*
G01X1497500Y925000D02*
Y905000D01*
G01X1491750Y925000D02*
X1503250D01*
G01X1510250D02*
X1516500Y905000D01*
X1522750Y925000D01*
G01X1530000Y909000D02*
X1531500Y906670D01*
X1533500Y905330D01*
X1535750Y905000D01*
X1537750Y905330D01*
X1539750Y907000D01*
X1541000Y909000D01*
X1541250Y911000D01*
X1540750Y913330D01*
X1539000Y915000D01*
X1537250Y915670D01*
X1535000D01*
G01X1537250D02*
X1538750Y916670D01*
X1540000Y918330D01*
X1540500Y920330D01*
X1540000Y922330D01*
X1538750Y924000D01*
X1536500Y925000D01*
X1534250Y924670D01*
X1532000Y923330D01*
G01X1551250Y911670D02*
X1557750D01*
G01X1573500Y905000D02*
Y925000D01*
X1570500Y921000D01*
G01Y905000D02*
X1576500D01*
G01X1587750Y921670D02*
X1589250Y923670D01*
X1591000Y924670D01*
X1593000Y925000D01*
X1595500Y924330D01*
X1597250Y922670D01*
X1597750Y920670D01*
X1597500Y918670D01*
X1596500Y917000D01*
X1591500Y913670D01*
X1589250Y911330D01*
X1587750Y908000D01*
X1587250Y905000D01*
X1597750D01*
G01X1497500Y950000D02*
Y930000D01*
G01X1491750Y950000D02*
X1503250D01*
G01X1510250D02*
X1516500Y930000D01*
X1522750Y950000D01*
G01X1530000Y934000D02*
X1531500Y931670D01*
X1533500Y930330D01*
X1535750Y930000D01*
X1537750Y930330D01*
X1539750Y932000D01*
X1541000Y934000D01*
X1541250Y936000D01*
X1540750Y938330D01*
X1539000Y940000D01*
X1537250Y940670D01*
X1535000D01*
G01X1537250D02*
X1538750Y941670D01*
X1540000Y943330D01*
X1540500Y945330D01*
X1540000Y947330D01*
X1538750Y949000D01*
X1536500Y950000D01*
X1534250Y949670D01*
X1532000Y948330D01*
G01X1551250Y936670D02*
X1557750D01*
G01X1573500Y930000D02*
Y950000D01*
X1570500Y946000D01*
G01Y930000D02*
X1576500D01*
G01X1587000Y934000D02*
X1588500Y931670D01*
X1590500Y930330D01*
X1592750Y930000D01*
X1594750Y930330D01*
X1596750Y932000D01*
X1598000Y934000D01*
X1598250Y936000D01*
X1597750Y938330D01*
X1596000Y940000D01*
X1594250Y940670D01*
X1592000D01*
G01X1594250D02*
X1595750Y941670D01*
X1597000Y943330D01*
X1597500Y945330D01*
X1597000Y947330D01*
X1595750Y949000D01*
X1593500Y950000D01*
X1591250Y949670D01*
X1589000Y948330D01*
G01X1497500Y975000D02*
Y955000D01*
G01X1491750Y975000D02*
X1503250D01*
G01X1510250D02*
X1516500Y955000D01*
X1522750Y975000D01*
G01X1530000Y959000D02*
X1531500Y956670D01*
X1533500Y955330D01*
X1535750Y955000D01*
X1537750Y955330D01*
X1539750Y957000D01*
X1541000Y959000D01*
X1541250Y961000D01*
X1540750Y963330D01*
X1539000Y965000D01*
X1537250Y965670D01*
X1535000D01*
G01X1537250D02*
X1538750Y966670D01*
X1540000Y968330D01*
X1540500Y970330D01*
X1540000Y972330D01*
X1538750Y974000D01*
X1536500Y975000D01*
X1534250Y974670D01*
X1532000Y973330D01*
G01X1551250Y961670D02*
X1557750D01*
G01X1573500Y955000D02*
Y975000D01*
X1570500Y971000D01*
G01Y955000D02*
X1576500D01*
G01X1595500D02*
Y975000D01*
X1586250Y960670D01*
X1598750D01*
G01X1562500Y1290000D02*
Y1310000D01*
X1568750D01*
X1570750Y1309000D01*
X1572000Y1307670D01*
X1572500Y1305000D01*
X1572000Y1302330D01*
X1570500Y1300670D01*
X1568750Y1299670D01*
X1562500D01*
G01X1568750D02*
X1572500Y1290000D01*
G01X1586500D02*
Y1310000D01*
X1583500Y1306000D01*
G01Y1290000D02*
X1589500D01*
G01X1600000Y1294000D02*
X1601500Y1291670D01*
X1603500Y1290330D01*
X1605750Y1290000D01*
X1607750Y1290330D01*
X1609750Y1292000D01*
X1611000Y1294000D01*
X1611250Y1296000D01*
X1610750Y1298330D01*
X1609000Y1300000D01*
X1607250Y1300670D01*
X1605000D01*
G01X1607250D02*
X1608750Y1301670D01*
X1610000Y1303330D01*
X1610500Y1305330D01*
X1610000Y1307330D01*
X1608750Y1309000D01*
X1606500Y1310000D01*
X1604250Y1309670D01*
X1602000Y1308330D01*
G01X1672500Y1290000D02*
Y1310000D01*
X1678750D01*
X1680750Y1309000D01*
X1682000Y1307670D01*
X1682500Y1305000D01*
X1682000Y1302330D01*
X1680500Y1300670D01*
X1678750Y1299670D01*
X1672500D01*
G01X1678750D02*
X1682500Y1290000D01*
G01X1696500D02*
Y1310000D01*
X1693500Y1306000D01*
G01Y1290000D02*
X1699500D01*
G01X1718500D02*
Y1310000D01*
X1709250Y1295670D01*
X1721750D01*
G01X1782500Y1290000D02*
Y1310000D01*
X1788750D01*
X1790750Y1309000D01*
X1792000Y1307670D01*
X1792500Y1305000D01*
X1792000Y1302330D01*
X1790500Y1300670D01*
X1788750Y1299670D01*
X1782500D01*
G01X1788750D02*
X1792500Y1290000D01*
G01X1806500D02*
Y1310000D01*
X1803500Y1306000D01*
G01Y1290000D02*
X1809500D01*
G01X1820000Y1293000D02*
X1821500Y1291330D01*
X1823250Y1290330D01*
X1825500Y1290000D01*
X1827750Y1290670D01*
X1829500Y1292000D01*
X1830750Y1294330D01*
X1831000Y1297000D01*
X1830500Y1299670D01*
X1829250Y1301330D01*
X1827500Y1302670D01*
X1825750Y1303000D01*
X1824000Y1302670D01*
X1821750Y1301330D01*
X1822500Y1310000D01*
X1829250D01*
G01X1857500Y955000D02*
Y935000D01*
G01X1851750Y955000D02*
X1863250D01*
G01X1870250D02*
X1876500Y935000D01*
X1882750Y955000D01*
G01X1890000Y939000D02*
X1891500Y936670D01*
X1893500Y935330D01*
X1895750Y935000D01*
X1897750Y935330D01*
X1899750Y937000D01*
X1901000Y939000D01*
X1901250Y941000D01*
X1900750Y943330D01*
X1899000Y945000D01*
X1897250Y945670D01*
X1895000D01*
G01X1897250D02*
X1898750Y946670D01*
X1900000Y948330D01*
X1900500Y950330D01*
X1900000Y952330D01*
X1898750Y954000D01*
X1896500Y955000D01*
X1894250Y954670D01*
X1892000Y953330D01*
G01X1911250Y941670D02*
X1917750D01*
G01X1933500Y935000D02*
Y955000D01*
X1930500Y951000D01*
G01Y935000D02*
X1936500D01*
G01X1947750Y943330D02*
X1949500Y945670D01*
X1951000Y947000D01*
X1953000Y947670D01*
X1954750Y947000D01*
X1956000Y945670D01*
X1957000Y943670D01*
X1957250Y941330D01*
X1957000Y939330D01*
X1956000Y937330D01*
X1954500Y935670D01*
X1952750Y935000D01*
X1950750Y935670D01*
X1949000Y937670D01*
X1948000Y940670D01*
X1947750Y944000D01*
X1948250Y948330D01*
X1949000Y950670D01*
X1950250Y953000D01*
X1952000Y954670D01*
X1953750Y955000D01*
X1955500Y954330D01*
X1956750Y952670D01*
G01X1892500Y1290000D02*
Y1310000D01*
X1898750D01*
X1900750Y1309000D01*
X1902000Y1307670D01*
X1902500Y1305000D01*
X1902000Y1302330D01*
X1900500Y1300670D01*
X1898750Y1299670D01*
X1892500D01*
G01X1898750D02*
X1902500Y1290000D01*
G01X1916500D02*
Y1310000D01*
X1913500Y1306000D01*
G01Y1290000D02*
X1919500D01*
G01X1930750Y1298330D02*
X1932500Y1300670D01*
X1934000Y1302000D01*
X1936000Y1302670D01*
X1937750Y1302000D01*
X1939000Y1300670D01*
X1940000Y1298670D01*
X1940250Y1296330D01*
X1940000Y1294330D01*
X1939000Y1292330D01*
X1937500Y1290670D01*
X1935750Y1290000D01*
X1933750Y1290670D01*
X1932000Y1292670D01*
X1931000Y1295670D01*
X1930750Y1299000D01*
X1931250Y1303330D01*
X1932000Y1305670D01*
X1933250Y1308000D01*
X1935000Y1309670D01*
X1936750Y1310000D01*
X1938500Y1309330D01*
X1939750Y1307670D01*
G01X2027500Y630000D02*
Y610000D01*
G01X2021750Y630000D02*
X2033250D01*
G01X2040250D02*
X2046500Y610000D01*
X2052750Y630000D01*
G01X2060000Y614000D02*
X2061500Y611670D01*
X2063500Y610330D01*
X2065750Y610000D01*
X2067750Y610330D01*
X2069750Y612000D01*
X2071000Y614000D01*
X2071250Y616000D01*
X2070750Y618330D01*
X2069000Y620000D01*
X2067250Y620670D01*
X2065000D01*
G01X2067250D02*
X2068750Y621670D01*
X2070000Y623330D01*
X2070500Y625330D01*
X2070000Y627330D01*
X2068750Y629000D01*
X2066500Y630000D01*
X2064250Y629670D01*
X2062000Y628330D01*
G01X2081250Y616670D02*
X2087750D01*
G01X2103500Y610000D02*
Y630000D01*
X2100500Y626000D01*
G01Y610000D02*
X2106500D01*
G01X2117000Y613000D02*
X2118500Y611330D01*
X2120250Y610330D01*
X2122500Y610000D01*
X2124750Y610670D01*
X2126500Y612000D01*
X2127750Y614330D01*
X2128000Y617000D01*
X2127500Y619670D01*
X2126250Y621330D01*
X2124500Y622670D01*
X2122750Y623000D01*
X2121000Y622670D01*
X2118750Y621330D01*
X2119500Y630000D01*
X2126250D01*
G01X2007500Y860000D02*
Y840000D01*
G01X2001750Y860000D02*
X2013250D01*
G01X2020250D02*
X2026500Y840000D01*
X2032750Y860000D01*
G01X2040000Y844000D02*
X2041500Y841670D01*
X2043500Y840330D01*
X2045750Y840000D01*
X2047750Y840330D01*
X2049750Y842000D01*
X2051000Y844000D01*
X2051250Y846000D01*
X2050750Y848330D01*
X2049000Y850000D01*
X2047250Y850670D01*
X2045000D01*
G01X2047250D02*
X2048750Y851670D01*
X2050000Y853330D01*
X2050500Y855330D01*
X2050000Y857330D01*
X2048750Y859000D01*
X2046500Y860000D01*
X2044250Y859670D01*
X2042000Y858330D01*
G01X2061250Y846670D02*
X2067750D01*
G01X2083500Y840000D02*
Y860000D01*
X2080500Y856000D01*
G01Y840000D02*
X2086500D01*
G01X2102500D02*
X2104250Y840330D01*
X2106250Y841330D01*
X2107500Y843000D01*
X2108000Y845330D01*
X2107500Y847670D01*
X2106000Y849670D01*
X2103750Y850670D01*
X2101250D01*
X2099750Y851330D01*
X2098500Y853000D01*
X2098000Y855330D01*
X2098750Y857670D01*
X2100500Y859330D01*
X2102500Y860000D01*
X2104500Y859330D01*
X2106250Y857670D01*
X2107000Y855330D01*
X2106500Y853000D01*
X2105250Y851330D01*
X2103750Y850670D01*
X2101250D01*
X2099000Y849670D01*
X2097500Y847670D01*
X2097000Y845330D01*
X2097500Y843000D01*
X2098750Y841330D01*
X2100750Y840330D01*
X2102500Y840000D01*
G01X2002500Y1290000D02*
Y1310000D01*
X2008750D01*
X2010750Y1309000D01*
X2012000Y1307670D01*
X2012500Y1305000D01*
X2012000Y1302330D01*
X2010500Y1300670D01*
X2008750Y1299670D01*
X2002500D01*
G01X2008750D02*
X2012500Y1290000D01*
G01X2026500D02*
Y1310000D01*
X2023500Y1306000D01*
G01Y1290000D02*
X2029500D01*
G01X2041250Y1292330D02*
X2043000Y1290670D01*
X2045000Y1290000D01*
X2047000Y1290670D01*
X2048750Y1292670D01*
X2050000Y1295670D01*
X2050500Y1298670D01*
Y1302330D01*
X2050000Y1305330D01*
X2048750Y1308000D01*
X2047250Y1309330D01*
X2045500Y1310000D01*
X2043500Y1309330D01*
X2042000Y1308000D01*
X2041000Y1306000D01*
X2040500Y1303330D01*
X2041000Y1301000D01*
X2042250Y1298670D01*
X2043750Y1297330D01*
X2045500Y1297000D01*
X2047500Y1297670D01*
X2049000Y1299330D01*
X2050500Y1302330D01*
G01X2087500Y960000D02*
Y940000D01*
G01X2081750Y960000D02*
X2093250D01*
G01X2100250D02*
X2106500Y940000D01*
X2112750Y960000D01*
G01X2120000Y944000D02*
X2121500Y941670D01*
X2123500Y940330D01*
X2125750Y940000D01*
X2127750Y940330D01*
X2129750Y942000D01*
X2131000Y944000D01*
X2131250Y946000D01*
X2130750Y948330D01*
X2129000Y950000D01*
X2127250Y950670D01*
X2125000D01*
G01X2127250D02*
X2128750Y951670D01*
X2130000Y953330D01*
X2130500Y955330D01*
X2130000Y957330D01*
X2128750Y959000D01*
X2126500Y960000D01*
X2124250Y959670D01*
X2122000Y958330D01*
G01X2141250Y946670D02*
X2147750D01*
G01X2163500Y940000D02*
Y960000D01*
X2160500Y956000D01*
G01Y940000D02*
X2166500D01*
G01X2182000D02*
X2182500Y944330D01*
X2183250Y948000D01*
X2184250Y951330D01*
X2185500Y955000D01*
X2187500Y960000D01*
X2177500D01*
G01X2137250Y482670D02*
X2139250Y481000D01*
X2141500Y480000D01*
X2143500D01*
X2145500Y481000D01*
X2147000Y482670D01*
X2147750Y485000D01*
X2147250Y487330D01*
X2146000Y489330D01*
X2143750Y490670D01*
X2140750Y491330D01*
X2139000Y492670D01*
X2138250Y495000D01*
X2138750Y497330D01*
X2140000Y499000D01*
X2141750Y500000D01*
X2143500D01*
X2145250Y499330D01*
X2146750Y497670D01*
G01X2161500Y480000D02*
Y500000D01*
X2158500Y496000D01*
G01Y480000D02*
X2164500D01*
G01X2180500Y500000D02*
X2178500Y499330D01*
X2177000Y497670D01*
X2176000Y495670D01*
X2175250Y493000D01*
X2175000Y490000D01*
X2175250Y487000D01*
X2176000Y484330D01*
X2177000Y482330D01*
X2178500Y480670D01*
X2180500Y480000D01*
X2182500Y480670D01*
X2184000Y482330D01*
X2185000Y484330D01*
X2185750Y487000D01*
X2186000Y490000D01*
X2185750Y493000D01*
X2185000Y495670D01*
X2184000Y497670D01*
X2182500Y499330D01*
X2180500Y500000D01*
G01X2196250Y486670D02*
X2202750D01*
G01X2218500Y480000D02*
Y500000D01*
X2215500Y496000D01*
G01Y480000D02*
X2221500D01*
G01X2157250Y612670D02*
X2159250Y611000D01*
X2161500Y610000D01*
X2163500D01*
X2165500Y611000D01*
X2167000Y612670D01*
X2167750Y615000D01*
X2167250Y617330D01*
X2166000Y619330D01*
X2163750Y620670D01*
X2160750Y621330D01*
X2159000Y622670D01*
X2158250Y625000D01*
X2158750Y627330D01*
X2160000Y629000D01*
X2161750Y630000D01*
X2163500D01*
X2165250Y629330D01*
X2166750Y627670D01*
G01X2181500Y610000D02*
Y630000D01*
X2178500Y626000D01*
G01Y610000D02*
X2184500D01*
G01X2200500Y630000D02*
X2198500Y629330D01*
X2197000Y627670D01*
X2196000Y625670D01*
X2195250Y623000D01*
X2195000Y620000D01*
X2195250Y617000D01*
X2196000Y614330D01*
X2197000Y612330D01*
X2198500Y610670D01*
X2200500Y610000D01*
X2202500Y610670D01*
X2204000Y612330D01*
X2205000Y614330D01*
X2205750Y617000D01*
X2206000Y620000D01*
X2205750Y623000D01*
X2205000Y625670D01*
X2204000Y627670D01*
X2202500Y629330D01*
X2200500Y630000D01*
G01X2216250Y616670D02*
X2222750D01*
G01X2233750Y626670D02*
X2235250Y628670D01*
X2237000Y629670D01*
X2239000Y630000D01*
X2241500Y629330D01*
X2243250Y627670D01*
X2243750Y625670D01*
X2243500Y623670D01*
X2242500Y622000D01*
X2237500Y618670D01*
X2235250Y616330D01*
X2233750Y613000D01*
X2233250Y610000D01*
X2243750D01*
M02*
